<svg width="355" height="247" viewBox="0 0 355 247" fill="none" xmlns="http://www.w3.org/2000/svg">
<g opacity="0.5">
<path d="M4.26101 244.129C3.57161 244.129 2.95762 244.011 2.41903 243.774C1.88352 243.534 1.46035 243.204 1.1495 242.786C0.841738 242.364 0.683239 241.878 0.674006 241.327H2.68679C2.6991 241.558 2.7745 241.761 2.913 241.936C3.05457 242.109 3.24231 242.243 3.47621 242.338C3.71011 242.433 3.97325 242.481 4.26562 242.481C4.57031 242.481 4.83961 242.427 5.07351 242.32C5.30741 242.212 5.49053 242.063 5.62287 241.872C5.75521 241.681 5.82138 241.461 5.82138 241.212C5.82138 240.959 5.75059 240.736 5.60902 240.542C5.47053 240.345 5.27048 240.191 5.00888 240.081C4.75036 239.97 4.44259 239.914 4.08558 239.914H3.20384V238.446H4.08558C4.38719 238.446 4.65341 238.394 4.88423 238.289C5.11813 238.185 5.29972 238.04 5.42898 237.855C5.55824 237.668 5.62287 237.449 5.62287 237.2C5.62287 236.963 5.56593 236.755 5.45206 236.577C5.34126 236.395 5.1843 236.254 4.98118 236.152C4.78113 236.05 4.54723 236 4.27947 236C4.00864 236 3.76089 236.049 3.53622 236.147C3.31155 236.243 3.13151 236.38 2.99609 236.558C2.86068 236.737 2.78835 236.946 2.77912 237.186H0.863281C0.872514 236.641 1.02794 236.161 1.32955 235.746C1.63116 235.33 2.03741 235.006 2.5483 234.772C3.06226 234.535 3.6424 234.416 4.28871 234.416C4.94117 234.416 5.51207 234.535 6.00142 234.772C6.49077 235.009 6.87086 235.329 7.14169 235.732C7.4156 236.132 7.55102 236.581 7.54794 237.08C7.55102 237.609 7.38636 238.051 7.05398 238.405C6.72467 238.759 6.29534 238.983 5.76598 239.079V239.153C6.46153 239.242 6.99089 239.484 7.35405 239.877C7.72029 240.268 7.90187 240.758 7.89879 241.346C7.90187 241.884 7.74645 242.363 7.43253 242.781C7.12169 243.2 6.69235 243.529 6.14453 243.769C5.59671 244.009 4.96887 244.129 4.26101 244.129ZM13.0427 244.208C12.2487 244.205 11.5654 244.009 10.993 243.621C10.4236 243.234 9.98506 242.672 9.67729 241.936C9.3726 241.201 9.2218 240.316 9.22488 239.282C9.22488 238.251 9.37722 237.372 9.68191 236.646C9.98967 235.92 10.4282 235.367 10.9976 234.989C11.57 234.607 12.2517 234.416 13.0427 234.416C13.8337 234.416 14.5138 234.607 15.0832 234.989C15.6556 235.37 16.0957 235.924 16.4035 236.651C16.7113 237.374 16.8636 238.251 16.8605 239.282C16.8605 240.319 16.7066 241.205 16.3989 241.941C16.0942 242.677 15.6572 243.238 15.0878 243.626C14.5184 244.014 13.8367 244.208 13.0427 244.208ZM13.0427 242.55C13.5844 242.55 14.0168 242.278 14.3399 241.733C14.6631 241.189 14.8231 240.371 14.82 239.282C14.82 238.565 14.7462 237.968 14.5985 237.491C14.4538 237.014 14.2476 236.655 13.9798 236.415C13.7152 236.175 13.4028 236.055 13.0427 236.055C12.5041 236.055 12.0732 236.324 11.7501 236.863C11.4269 237.402 11.2638 238.208 11.2607 239.282C11.2607 240.008 11.3331 240.615 11.4777 241.101C11.6254 241.584 11.8332 241.947 12.1009 242.19C12.3687 242.43 12.6826 242.55 13.0427 242.55ZM21.739 244.129C21.0865 244.129 20.5049 244.009 19.994 243.769C19.4862 243.529 19.083 243.198 18.7844 242.777C18.4859 242.355 18.3305 241.872 18.3182 241.327H20.2571C20.2786 241.693 20.4325 241.99 20.7188 242.218C21.005 242.446 21.3451 242.56 21.739 242.56C22.0529 242.56 22.3299 242.49 22.57 242.352C22.8131 242.21 23.0024 242.015 23.1378 241.766C23.2763 241.513 23.3455 241.224 23.3455 240.898C23.3455 240.565 23.2747 240.273 23.1332 240.021C22.9947 239.768 22.8023 239.571 22.5561 239.43C22.3099 239.288 22.0283 239.216 21.7113 239.213C21.4343 239.213 21.165 239.27 20.9034 239.384C20.6449 239.497 20.4433 239.653 20.2987 239.85L18.5213 239.531L18.9691 234.545H24.7489V236.18H20.6172L20.3725 238.548H20.4279C20.5941 238.314 20.8449 238.12 21.1804 237.966C21.5159 237.812 21.8913 237.735 22.3068 237.735C22.8762 237.735 23.384 237.869 23.8303 238.137C24.2765 238.405 24.6289 238.773 24.8874 239.24C25.146 239.705 25.2737 240.241 25.2706 240.847C25.2737 241.484 25.1259 242.05 24.8274 242.546C24.532 243.038 24.118 243.426 23.5856 243.709C23.0562 243.989 22.4407 244.129 21.739 244.129ZM36.0028 234.545V236.194H31.7279V244H29.729V234.545H36.0028ZM37.2827 244V234.545H41.0128C41.7299 234.545 42.3408 234.682 42.8455 234.956C43.3503 235.227 43.735 235.604 43.9996 236.087C44.2674 236.567 44.4013 237.121 44.4013 237.749C44.4013 238.377 44.2659 238.931 43.995 239.411C43.7242 239.891 43.3318 240.265 42.8178 240.533C42.3069 240.801 41.6883 240.935 40.962 240.935H38.5845V239.333H40.6388C41.0236 239.333 41.3406 239.267 41.5898 239.134C41.8422 238.999 42.0299 238.813 42.1531 238.576C42.2792 238.336 42.3423 238.06 42.3423 237.749C42.3423 237.435 42.2792 237.161 42.1531 236.928C42.0299 236.691 41.8422 236.507 41.5898 236.378C41.3375 236.246 41.0174 236.18 40.6296 236.18H39.2816V244H37.2827ZM45.6997 244V234.545H47.6986V238.446H51.7565V234.545H53.7508V244H51.7565V240.094H47.6986V244H45.6997Z" fill="white" fill-opacity="0.06"/>
<path d="M86.261 244.129C85.5716 244.129 84.9576 244.011 84.419 243.774C83.8835 243.534 83.4603 243.204 83.1495 242.786C82.8417 242.364 82.6832 241.878 82.674 241.327H84.6868C84.6991 241.558 84.7745 241.761 84.913 241.936C85.0546 242.109 85.2423 242.243 85.4762 242.338C85.7101 242.433 85.9732 242.481 86.2656 242.481C86.5703 242.481 86.8396 242.427 87.0735 242.32C87.3074 242.212 87.4905 242.063 87.6229 241.872C87.7552 241.681 87.8214 241.461 87.8214 241.212C87.8214 240.959 87.7506 240.736 87.609 240.542C87.4705 240.345 87.2705 240.191 87.0089 240.081C86.7504 239.97 86.4426 239.914 86.0856 239.914H85.2038V238.446H86.0856C86.3872 238.446 86.6534 238.394 86.8842 238.289C87.1181 238.185 87.2997 238.04 87.429 237.855C87.5582 237.668 87.6229 237.449 87.6229 237.2C87.6229 236.963 87.5659 236.755 87.4521 236.577C87.3413 236.395 87.1843 236.254 86.9812 236.152C86.7811 236.05 86.5472 236 86.2795 236C86.0086 236 85.7609 236.049 85.5362 236.147C85.3116 236.243 85.1315 236.38 84.9961 236.558C84.8607 236.737 84.7884 236.946 84.7791 237.186H82.8633C82.8725 236.641 83.0279 236.161 83.3295 235.746C83.6312 235.33 84.0374 235.006 84.5483 234.772C85.0623 234.535 85.6424 234.416 86.2887 234.416C86.9412 234.416 87.5121 234.535 88.0014 234.772C88.4908 235.009 88.8709 235.329 89.1417 235.732C89.4156 236.132 89.551 236.581 89.5479 237.08C89.551 237.609 89.3864 238.051 89.054 238.405C88.7247 238.759 88.2953 238.983 87.766 239.079V239.153C88.4615 239.242 88.9909 239.484 89.354 239.877C89.7203 240.268 89.9019 240.758 89.8988 241.346C89.9019 241.884 89.7464 242.363 89.4325 242.781C89.1217 243.2 88.6924 243.529 88.1445 243.769C87.5967 244.009 86.9689 244.129 86.261 244.129ZM95.0427 244.208C94.2487 244.205 93.5654 244.009 92.993 243.621C92.4236 243.234 91.9851 242.672 91.6773 241.936C91.3726 241.201 91.2218 240.316 91.2249 239.282C91.2249 238.251 91.3772 237.372 91.6819 236.646C91.9897 235.92 92.4282 235.367 92.9976 234.989C93.57 234.607 94.2517 234.416 95.0427 234.416C95.8337 234.416 96.5138 234.607 97.0832 234.989C97.6556 235.37 98.0957 235.924 98.4035 236.651C98.7113 237.374 98.8636 238.251 98.8605 239.282C98.8605 240.319 98.7066 241.205 98.3989 241.941C98.0942 242.677 97.6572 243.238 97.0878 243.626C96.5184 244.014 95.8367 244.208 95.0427 244.208ZM95.0427 242.55C95.5844 242.55 96.0168 242.278 96.3399 241.733C96.6631 241.189 96.8231 240.371 96.82 239.282C96.82 238.565 96.7462 237.968 96.5985 237.491C96.4538 237.014 96.2476 236.655 95.9798 236.415C95.7152 236.175 95.4028 236.055 95.0427 236.055C94.5041 236.055 94.0732 236.324 93.7501 236.863C93.4269 237.402 93.2638 238.208 93.2607 239.282C93.2607 240.008 93.3331 240.615 93.4777 241.101C93.6254 241.584 93.8332 241.947 94.1009 242.19C94.3687 242.43 94.6826 242.55 95.0427 242.55ZM109.624 234.545V236.194H105.349V244H103.35V234.545H109.624ZM110.904 244V234.545H114.634C115.351 234.545 115.962 234.682 116.467 234.956C116.971 235.227 117.356 235.604 117.621 236.087C117.888 236.567 118.022 237.121 118.022 237.749C118.022 238.377 117.887 238.931 117.616 239.411C117.345 239.891 116.953 240.265 116.439 240.533C115.928 240.801 115.309 240.935 114.583 240.935H112.206V239.333H114.26C114.645 239.333 114.962 239.267 115.211 239.134C115.463 238.999 115.651 238.813 115.774 238.576C115.9 238.336 115.963 238.06 115.963 237.749C115.963 237.435 115.9 237.161 115.774 236.928C115.651 236.691 115.463 236.507 115.211 236.378C114.959 236.246 114.638 236.18 114.251 236.18H112.903V244H110.904ZM119.321 244V234.545H121.32V238.446H125.378V234.545H127.372V244H125.378V240.094H121.32V244H119.321Z" fill="white" fill-opacity="0.21"/>
<path d="M160.88 234.545V244H158.881V236.443H158.825L156.66 237.8V236.027L159.001 234.545H160.88ZM166.834 244.208C166.04 244.205 165.356 244.009 164.784 243.621C164.215 243.234 163.776 242.672 163.468 241.936C163.164 241.201 163.013 240.316 163.016 239.282C163.016 238.251 163.168 237.372 163.473 236.646C163.781 235.92 164.219 235.367 164.789 234.989C165.361 234.607 166.043 234.416 166.834 234.416C167.625 234.416 168.305 234.607 168.874 234.989C169.447 235.37 169.887 235.924 170.195 236.651C170.502 237.374 170.655 238.251 170.652 239.282C170.652 240.319 170.498 241.205 170.19 241.941C169.885 242.677 169.448 243.238 168.879 243.626C168.309 244.014 167.628 244.208 166.834 244.208ZM166.834 242.55C167.375 242.55 167.808 242.278 168.131 241.733C168.454 241.189 168.614 240.371 168.611 239.282C168.611 238.565 168.537 237.968 168.389 237.491C168.245 237.014 168.039 236.655 167.771 236.415C167.506 236.175 167.194 236.055 166.834 236.055C166.295 236.055 165.864 236.324 165.541 236.863C165.218 237.402 165.055 238.208 165.052 239.282C165.052 240.008 165.124 240.615 165.269 241.101C165.416 241.584 165.624 241.947 165.892 242.19C166.16 242.43 166.474 242.55 166.834 242.55ZM181.415 234.545V236.194H177.14V244H175.141V234.545H181.415ZM182.695 244V234.545H186.425C187.142 234.545 187.753 234.682 188.258 234.956C188.762 235.227 189.147 235.604 189.412 236.087C189.68 236.567 189.813 237.121 189.813 237.749C189.813 238.377 189.678 238.931 189.407 239.411C189.136 239.891 188.744 240.265 188.23 240.533C187.719 240.801 187.1 240.935 186.374 240.935H183.997V239.333H186.051C186.436 239.333 186.753 239.267 187.002 239.134C187.254 238.999 187.442 238.813 187.565 238.576C187.691 238.336 187.754 238.06 187.754 237.749C187.754 237.435 187.691 237.161 187.565 236.928C187.442 236.691 187.254 236.507 187.002 236.378C186.75 236.246 186.43 236.18 186.042 236.18H184.694V244H182.695ZM191.112 244V234.545H193.111V238.446H197.169V234.545H199.163V244H197.169V240.094H193.111V244H191.112Z" fill="white" fill-opacity="0.11"/>
<path d="M231.88 234.545V244H229.881V236.443H229.825L227.66 237.8V236.027L230.001 234.545H231.88ZM237.834 244.208C237.04 244.205 236.356 244.009 235.784 243.621C235.215 243.234 234.776 242.672 234.468 241.936C234.164 241.201 234.013 240.316 234.016 239.282C234.016 238.251 234.168 237.372 234.473 236.646C234.781 235.92 235.219 235.367 235.789 234.989C236.361 234.607 237.043 234.416 237.834 234.416C238.625 234.416 239.305 234.607 239.874 234.989C240.447 235.37 240.887 235.924 241.195 236.651C241.502 237.374 241.655 238.251 241.652 239.282C241.652 240.319 241.498 241.205 241.19 241.941C240.885 242.677 240.448 243.238 239.879 243.626C239.309 244.014 238.628 244.208 237.834 244.208ZM237.834 242.55C238.375 242.55 238.808 242.278 239.131 241.733C239.454 241.189 239.614 240.371 239.611 239.282C239.611 238.565 239.537 237.968 239.389 237.491C239.245 237.014 239.039 236.655 238.771 236.415C238.506 236.175 238.194 236.055 237.834 236.055C237.295 236.055 236.864 236.324 236.541 236.863C236.218 237.402 236.055 238.208 236.052 239.282C236.052 240.008 236.124 240.615 236.269 241.101C236.416 241.584 236.624 241.947 236.892 242.19C237.16 242.43 237.474 242.55 237.834 242.55ZM246.784 244.208C245.99 244.205 245.307 244.009 244.734 243.621C244.165 243.234 243.726 242.672 243.419 241.936C243.114 241.201 242.963 240.316 242.966 239.282C242.966 238.251 243.118 237.372 243.423 236.646C243.731 235.92 244.169 235.367 244.739 234.989C245.311 234.607 245.993 234.416 246.784 234.416C247.575 234.416 248.255 234.607 248.824 234.989C249.397 235.37 249.837 235.924 250.145 236.651C250.452 237.374 250.605 238.251 250.602 239.282C250.602 240.319 250.448 241.205 250.14 241.941C249.835 242.677 249.398 243.238 248.829 243.626C248.26 244.014 247.578 244.208 246.784 244.208ZM246.784 242.55C247.326 242.55 247.758 242.278 248.081 241.733C248.404 241.189 248.564 240.371 248.561 239.282C248.561 238.565 248.487 237.968 248.34 237.491C248.195 237.014 247.989 236.655 247.721 236.415C247.456 236.175 247.144 236.055 246.784 236.055C246.245 236.055 245.814 236.324 245.491 236.863C245.168 237.402 245.005 238.208 245.002 239.282C245.002 240.008 245.074 240.615 245.219 241.101C245.367 241.584 245.574 241.947 245.842 242.19C246.11 242.43 246.424 242.55 246.784 242.55ZM261.365 234.545V236.194H257.09V244H255.091V234.545H261.365ZM262.645 244V234.545H266.375C267.092 234.545 267.703 234.682 268.208 234.956C268.713 235.227 269.097 235.604 269.362 236.087C269.63 236.567 269.764 237.121 269.764 237.749C269.764 238.377 269.628 238.931 269.357 239.411C269.087 239.891 268.694 240.265 268.18 240.533C267.669 240.801 267.051 240.935 266.324 240.935H263.947V239.333H266.001C266.386 239.333 266.703 239.267 266.952 239.134C267.205 238.999 267.392 238.813 267.515 238.576C267.642 238.336 267.705 238.06 267.705 237.749C267.705 237.435 267.642 237.161 267.515 236.928C267.392 236.691 267.205 236.507 266.952 236.378C266.7 236.246 266.38 236.18 265.992 236.18H264.644V244H262.645ZM271.062 244V234.545H273.061V238.446H277.119V234.545H279.113V244H277.119V240.094H273.061V244H271.062Z" fill="white" fill-opacity="0.21"/>
<path d="M307.623 242.338V240.764L311.57 234.545H312.928V236.724H312.124L309.636 240.662V240.736H315.245V242.338H307.623ZM312.161 244V241.858L312.198 241.161V234.545H314.072V244H312.161ZM320.284 244.208C319.49 244.205 318.807 244.009 318.234 243.621C317.665 243.234 317.226 242.672 316.919 241.936C316.614 241.201 316.463 240.316 316.466 239.282C316.466 238.251 316.618 237.372 316.923 236.646C317.231 235.92 317.669 235.367 318.239 234.989C318.811 234.607 319.493 234.416 320.284 234.416C321.075 234.416 321.755 234.607 322.324 234.989C322.897 235.37 323.337 235.924 323.645 236.651C323.952 237.374 324.105 238.251 324.102 239.282C324.102 240.319 323.948 241.205 323.64 241.941C323.335 242.677 322.898 243.238 322.329 243.626C321.76 244.014 321.078 244.208 320.284 244.208ZM320.284 242.55C320.826 242.55 321.258 242.278 321.581 241.733C321.904 241.189 322.064 240.371 322.061 239.282C322.061 238.565 321.987 237.968 321.84 237.491C321.695 237.014 321.489 236.655 321.221 236.415C320.956 236.175 320.644 236.055 320.284 236.055C319.745 236.055 319.314 236.324 318.991 236.863C318.668 237.402 318.505 238.208 318.502 239.282C318.502 240.008 318.574 240.615 318.719 241.101C318.867 241.584 319.074 241.947 319.342 242.19C319.61 242.43 319.924 242.55 320.284 242.55ZM334.865 234.545V236.194H330.59V244H328.591V234.545H334.865ZM336.145 244V234.545H339.875C340.592 234.545 341.203 234.682 341.708 234.956C342.213 235.227 342.597 235.604 342.862 236.087C343.13 236.567 343.264 237.121 343.264 237.749C343.264 238.377 343.128 238.931 342.857 239.411C342.587 239.891 342.194 240.265 341.68 240.533C341.169 240.801 340.551 240.935 339.824 240.935H337.447V239.333H339.501C339.886 239.333 340.203 239.267 340.452 239.134C340.705 238.999 340.892 238.813 341.015 238.576C341.142 238.336 341.205 238.06 341.205 237.749C341.205 237.435 341.142 237.161 341.015 236.928C340.892 236.691 340.705 236.507 340.452 236.378C340.2 236.246 339.88 236.18 339.492 236.18H338.144V244H336.145ZM344.562 244V234.545H346.561V238.446H350.619V234.545H352.613V244H350.619V240.094H346.561V244H344.562Z" fill="white" fill-opacity="0.08"/>
</g>
<g opacity="0.5">
<path d="M67.7663 154V152.56L71.1317 149.444C71.418 149.167 71.658 148.917 71.8519 148.696C72.0489 148.474 72.1982 148.257 72.2997 148.045C72.4013 147.829 72.4521 147.597 72.4521 147.348C72.4521 147.071 72.389 146.832 72.2628 146.632C72.1366 146.429 71.9643 146.274 71.7457 146.166C71.5272 146.055 71.2795 146 71.0025 146C70.7132 146 70.4608 146.058 70.2454 146.175C70.0299 146.292 69.8638 146.46 69.7468 146.678C69.6299 146.897 69.5714 147.157 69.5714 147.458H67.674C67.674 146.84 67.814 146.303 68.0941 145.847C68.3742 145.392 68.7666 145.039 69.2713 144.79C69.776 144.541 70.3577 144.416 71.0163 144.416C71.6934 144.416 72.2828 144.536 72.7844 144.776C73.2892 145.013 73.6816 145.343 73.9616 145.764C74.2417 146.186 74.3817 146.669 74.3817 147.214C74.3817 147.571 74.311 147.923 74.1694 148.271C74.0309 148.619 73.7831 149.005 73.4261 149.43C73.0691 149.851 72.5659 150.358 71.9165 150.949L70.5362 152.301V152.366H74.5064V154H67.7663ZM76.3287 154L80.2481 146.244V146.18H75.6824V144.545H82.3163V146.203L78.3923 154H76.3287ZM93.0242 144.545V146.194H88.7494V154H86.7504V144.545H93.0242ZM94.3042 154V144.545H98.0343C98.7514 144.545 99.3623 144.682 99.867 144.956C100.372 145.227 100.756 145.604 101.021 146.087C101.289 146.567 101.423 147.121 101.423 147.749C101.423 148.377 101.287 148.931 101.017 149.411C100.746 149.891 100.353 150.265 99.8393 150.533C99.3284 150.801 98.7098 150.935 97.9835 150.935H95.606V149.333H97.6603C98.045 149.333 98.362 149.267 98.6113 149.134C98.8637 148.999 99.0514 148.813 99.1745 148.576C99.3007 148.336 99.3638 148.06 99.3638 147.749C99.3638 147.435 99.3007 147.161 99.1745 146.928C99.0514 146.691 98.8637 146.507 98.6113 146.378C98.359 146.246 98.0389 146.18 97.6511 146.18H96.3031V154H94.3042ZM102.721 154V144.545H104.72V148.446H108.778V144.545H110.772V154H108.778V150.094H104.72V154H102.721Z" fill="white" fill-opacity="0.11"/>
<path d="M1.62322 152.338V150.764L5.57031 144.545H6.92756V146.724H6.12429L3.63601 150.662V150.736H9.24503V152.338H1.62322ZM6.16122 154V151.858L6.19815 151.161V144.545H8.07244V154H6.16122ZM19.9149 144.545V146.194H15.64V154H13.6411V144.545H19.9149ZM21.1948 154V144.545H24.9249C25.642 144.545 26.2529 144.682 26.7576 144.956C27.2624 145.227 27.6471 145.604 27.9118 146.087C28.1795 146.567 28.3134 147.121 28.3134 147.749C28.3134 148.377 28.178 148.931 27.9071 149.411C27.6363 149.891 27.2439 150.265 26.7299 150.533C26.219 150.801 25.6004 150.935 24.8741 150.935H22.4966V149.333H24.551C24.9357 149.333 25.2527 149.267 25.502 149.134C25.7543 148.999 25.9421 148.813 26.0652 148.576C26.1913 148.336 26.2544 148.06 26.2544 147.749C26.2544 147.435 26.1913 147.161 26.0652 146.928C25.9421 146.691 25.7543 146.507 25.502 146.378C25.2496 146.246 24.9295 146.18 24.5417 146.18H23.1937V154H21.1948ZM29.6118 154V144.545H31.6107V148.446H35.6686V144.545H37.6629V154H35.6686V150.094H31.6107V154H29.6118Z" fill="white" fill-opacity="0.15"/>
<path d="M144.219 154.129C143.567 154.129 142.985 154.009 142.474 153.769C141.967 153.529 141.563 153.198 141.265 152.777C140.966 152.355 140.811 151.872 140.799 151.327H142.738C142.759 151.693 142.913 151.99 143.199 152.218C143.485 152.446 143.826 152.56 144.219 152.56C144.533 152.56 144.81 152.49 145.05 152.352C145.294 152.21 145.483 152.015 145.618 151.766C145.757 151.513 145.826 151.224 145.826 150.898C145.826 150.565 145.755 150.273 145.614 150.021C145.475 149.768 145.283 149.571 145.037 149.43C144.79 149.288 144.509 149.216 144.192 149.213C143.915 149.213 143.645 149.27 143.384 149.384C143.125 149.497 142.924 149.653 142.779 149.85L141.002 149.531L141.45 144.545H147.229V146.18H143.098L142.853 148.548H142.908C143.075 148.314 143.325 148.12 143.661 147.966C143.996 147.812 144.372 147.735 144.787 147.735C145.357 147.735 145.864 147.869 146.311 148.137C146.757 148.405 147.109 148.773 147.368 149.24C147.626 149.705 147.754 150.241 147.751 150.847C147.754 151.484 147.606 152.05 147.308 152.546C147.012 153.038 146.598 153.426 146.066 153.709C145.537 153.989 144.921 154.129 144.219 154.129ZM152.852 154.208C152.058 154.205 151.375 154.009 150.803 153.621C150.233 153.234 149.795 152.672 149.487 151.936C149.182 151.201 149.031 150.316 149.034 149.282C149.034 148.251 149.187 147.372 149.491 146.646C149.799 145.92 150.238 145.367 150.807 144.989C151.38 144.607 152.061 144.416 152.852 144.416C153.643 144.416 154.323 144.607 154.893 144.989C155.465 145.37 155.905 145.924 156.213 146.651C156.521 147.374 156.673 148.251 156.67 149.282C156.67 150.319 156.516 151.205 156.208 151.941C155.904 152.677 155.467 153.238 154.897 153.626C154.328 154.014 153.646 154.208 152.852 154.208ZM152.852 152.55C153.394 152.55 153.826 152.278 154.15 151.733C154.473 151.189 154.633 150.371 154.63 149.282C154.63 148.565 154.556 147.968 154.408 147.491C154.263 147.014 154.057 146.655 153.789 146.415C153.525 146.175 153.212 146.055 152.852 146.055C152.314 146.055 151.883 146.324 151.56 146.863C151.237 147.402 151.073 148.208 151.07 149.282C151.07 150.008 151.143 150.615 151.287 151.101C151.435 151.584 151.643 151.947 151.911 152.19C152.178 152.43 152.492 152.55 152.852 152.55ZM161.802 154.208C161.008 154.205 160.325 154.009 159.753 153.621C159.183 153.234 158.745 152.672 158.437 151.936C158.132 151.201 157.982 150.316 157.985 149.282C157.985 148.251 158.137 147.372 158.442 146.646C158.749 145.92 159.188 145.367 159.757 144.989C160.33 144.607 161.012 144.416 161.802 144.416C162.593 144.416 163.274 144.607 163.843 144.989C164.415 145.37 164.855 145.924 165.163 146.651C165.471 147.374 165.623 148.251 165.62 149.282C165.62 150.319 165.466 151.205 165.159 151.941C164.854 152.677 164.417 153.238 163.848 153.626C163.278 154.014 162.597 154.208 161.802 154.208ZM161.802 152.55C162.344 152.55 162.777 152.278 163.1 151.733C163.423 151.189 163.583 150.371 163.58 149.282C163.58 148.565 163.506 147.968 163.358 147.491C163.214 147.014 163.007 146.655 162.74 146.415C162.475 146.175 162.163 146.055 161.802 146.055C161.264 146.055 160.833 146.324 160.51 146.863C160.187 147.402 160.024 148.208 160.021 149.282C160.021 150.008 160.093 150.615 160.237 151.101C160.385 151.584 160.593 151.947 160.861 152.19C161.128 152.43 161.442 152.55 161.802 152.55ZM176.384 144.545V146.194H172.109V154H170.11V144.545H176.384ZM177.664 154V144.545H181.394C182.111 144.545 182.722 144.682 183.226 144.956C183.731 145.227 184.116 145.604 184.381 146.087C184.648 146.567 184.782 147.121 184.782 147.749C184.782 148.377 184.647 148.931 184.376 149.411C184.105 149.891 183.713 150.265 183.199 150.533C182.688 150.801 182.069 150.935 181.343 150.935H178.965V149.333H181.02C181.404 149.333 181.721 149.267 181.971 149.134C182.223 148.999 182.411 148.813 182.534 148.576C182.66 148.336 182.723 148.06 182.723 147.749C182.723 147.435 182.66 147.161 182.534 146.928C182.411 146.691 182.223 146.507 181.971 146.378C181.718 146.246 181.398 146.18 181.01 146.18H179.662V154H177.664ZM186.081 154V144.545H188.079V148.446H192.137V144.545H194.132V154H192.137V150.094H188.079V154H186.081Z" fill="white" fill-opacity="0.11"/>
<path d="M223.766 151V149.56L227.132 146.444C227.418 146.167 227.658 145.917 227.852 145.696C228.049 145.474 228.198 145.257 228.3 145.045C228.401 144.829 228.452 144.597 228.452 144.348C228.452 144.071 228.389 143.832 228.263 143.632C228.137 143.429 227.964 143.274 227.746 143.166C227.527 143.055 227.279 143 227.002 143C226.713 143 226.461 143.058 226.245 143.175C226.03 143.292 225.864 143.46 225.747 143.678C225.63 143.897 225.571 144.157 225.571 144.458H223.674C223.674 143.84 223.814 143.303 224.094 142.847C224.374 142.392 224.767 142.039 225.271 141.79C225.776 141.541 226.358 141.416 227.016 141.416C227.693 141.416 228.283 141.536 228.784 141.776C229.289 142.013 229.682 142.343 229.962 142.764C230.242 143.186 230.382 143.669 230.382 144.214C230.382 144.571 230.311 144.923 230.169 145.271C230.031 145.619 229.783 146.005 229.426 146.43C229.069 146.851 228.566 147.358 227.917 147.949L226.536 149.301V149.366H230.506V151H223.766ZM231.955 151V149.56L235.32 146.444C235.606 146.167 235.847 145.917 236.04 145.696C236.237 145.474 236.387 145.257 236.488 145.045C236.59 144.829 236.641 144.597 236.641 144.348C236.641 144.071 236.577 143.832 236.451 143.632C236.325 143.429 236.153 143.274 235.934 143.166C235.716 143.055 235.468 143 235.191 143C234.902 143 234.649 143.058 234.434 143.175C234.218 143.292 234.052 143.46 233.935 143.678C233.818 143.897 233.76 144.157 233.76 144.458H231.862C231.862 143.84 232.003 143.303 232.283 142.847C232.563 142.392 232.955 142.039 233.46 141.79C233.965 141.541 234.546 141.416 235.205 141.416C235.882 141.416 236.471 141.536 236.973 141.776C237.478 142.013 237.87 142.343 238.15 142.764C238.43 143.186 238.57 143.669 238.57 144.214C238.57 144.571 238.499 144.923 238.358 145.271C238.219 145.619 237.972 146.005 237.615 146.43C237.258 146.851 236.754 147.358 236.105 147.949L234.725 149.301V149.366H238.695V151H231.955ZM240.143 151V149.56L243.509 146.444C243.795 146.167 244.035 145.917 244.229 145.696C244.426 145.474 244.575 145.257 244.677 145.045C244.778 144.829 244.829 144.597 244.829 144.348C244.829 144.071 244.766 143.832 244.64 143.632C244.514 143.429 244.341 143.274 244.123 143.166C243.904 143.055 243.656 143 243.379 143C243.09 143 242.838 143.058 242.622 143.175C242.407 143.292 242.241 143.46 242.124 143.678C242.007 143.897 241.948 144.157 241.948 144.458H240.051C240.051 143.84 240.191 143.303 240.471 142.847C240.751 142.392 241.144 142.039 241.648 141.79C242.153 141.541 242.735 141.416 243.393 141.416C244.07 141.416 244.66 141.536 245.161 141.776C245.666 142.013 246.059 142.343 246.339 142.764C246.619 143.186 246.759 143.669 246.759 144.214C246.759 144.571 246.688 144.923 246.546 145.271C246.408 145.619 246.16 146.005 245.803 146.43C245.446 146.851 244.943 147.358 244.294 147.949L242.913 149.301V149.366H246.883V151H240.143ZM257.67 141.545V143.194H253.395V151H251.396V141.545H257.67ZM258.95 151V141.545H262.68C263.397 141.545 264.008 141.682 264.513 141.956C265.017 142.227 265.402 142.604 265.667 143.087C265.934 143.567 266.068 144.121 266.068 144.749C266.068 145.377 265.933 145.931 265.662 146.411C265.391 146.891 264.999 147.265 264.485 147.533C263.974 147.801 263.355 147.935 262.629 147.935H260.252V146.333H262.306C262.691 146.333 263.008 146.267 263.257 146.134C263.509 145.999 263.697 145.813 263.82 145.576C263.946 145.336 264.009 145.06 264.009 144.749C264.009 144.435 263.946 144.161 263.82 143.928C263.697 143.691 263.509 143.507 263.257 143.378C263.004 143.246 262.684 143.18 262.297 143.18H260.949V151H258.95ZM267.367 151V141.545H269.366V145.446H273.423V141.545H275.418V151H273.423V147.094H269.366V151H267.367Z" fill="white" fill-opacity="0.11"/>
<path d="M309.88 141.545V151H307.881V143.443H307.825L305.66 144.8V143.027L308.001 141.545H309.88ZM316.24 141.545V151H314.241V143.443H314.186L312.021 144.8V143.027L314.361 141.545H316.24ZM322.6 141.545V151H320.601V143.443H320.546L318.381 144.8V143.027L320.721 141.545H322.6ZM334.185 141.545V143.194H329.911V151H327.912V141.545H334.185ZM335.465 151V141.545H339.195C339.912 141.545 340.523 141.682 341.028 141.956C341.533 142.227 341.918 142.604 342.182 143.087C342.45 143.567 342.584 144.121 342.584 144.749C342.584 145.377 342.448 145.931 342.178 146.411C341.907 146.891 341.514 147.265 341 147.533C340.49 147.801 339.871 147.935 339.145 147.935H336.767V146.333H338.821C339.206 146.333 339.523 146.267 339.772 146.134C340.025 145.999 340.213 145.813 340.336 145.576C340.462 145.336 340.525 145.06 340.525 144.749C340.525 144.435 340.462 144.161 340.336 143.928C340.213 143.691 340.025 143.507 339.772 143.378C339.52 143.246 339.2 143.18 338.812 143.18H337.464V151H335.465ZM343.882 151V141.545H345.881V145.446H349.939V141.545H351.933V151H349.939V147.094H345.881V151H343.882Z" fill="white" fill-opacity="0.17"/>
</g>
<g opacity="0.5">
<path d="M13.8796 189.545V199H11.8807V191.443H11.8253L9.66016 192.8V191.027L12.0007 189.545H13.8796ZM19.5798 199.129C18.9273 199.129 18.3457 199.009 17.8348 198.769C17.327 198.529 16.9238 198.198 16.6253 197.777C16.3267 197.355 16.1713 196.872 16.159 196.327H18.0979C18.1195 196.693 18.2733 196.99 18.5596 197.218C18.8458 197.446 19.1859 197.56 19.5798 197.56C19.8937 197.56 20.1707 197.49 20.4108 197.352C20.6539 197.21 20.8432 197.015 20.9786 196.766C21.1171 196.513 21.1863 196.224 21.1863 195.898C21.1863 195.565 21.1156 195.273 20.974 195.021C20.8355 194.768 20.6431 194.571 20.3969 194.43C20.1507 194.288 19.8691 194.216 19.5521 194.213C19.2751 194.213 19.0058 194.27 18.7442 194.384C18.4857 194.497 18.2841 194.653 18.1395 194.85L16.3621 194.531L16.8099 189.545H22.5898V191.18H18.458L18.2133 193.548H18.2687C18.4349 193.314 18.6858 193.12 19.0212 192.966C19.3567 192.812 19.7322 192.735 20.1476 192.735C20.717 192.735 21.2248 192.869 21.6711 193.137C22.1173 193.405 22.4697 193.773 22.7282 194.24C22.9868 194.705 23.1145 195.241 23.1114 195.847C23.1145 196.484 22.9668 197.05 22.6682 197.546C22.3728 198.038 21.9588 198.426 21.4264 198.709C20.897 198.989 20.2815 199.129 19.5798 199.129ZM33.8436 189.545V191.194H29.5687V199H27.5698V189.545H33.8436ZM35.1235 199V189.545H38.8536C39.5707 189.545 40.1816 189.682 40.6863 189.956C41.1911 190.227 41.5758 190.604 41.8405 191.087C42.1082 191.567 42.2421 192.121 42.2421 192.749C42.2421 193.377 42.1067 193.931 41.8358 194.411C41.565 194.891 41.1726 195.265 40.6586 195.533C40.1478 195.801 39.5291 195.935 38.8028 195.935H36.4253V194.333H38.4797C38.8644 194.333 39.1814 194.267 39.4307 194.134C39.683 193.999 39.8708 193.813 39.9939 193.576C40.1201 193.336 40.1831 193.06 40.1831 192.749C40.1831 192.435 40.1201 192.161 39.9939 191.928C39.8708 191.691 39.683 191.507 39.4307 191.378C39.1783 191.246 38.8582 191.18 38.4704 191.18H37.1224V199H35.1235ZM43.5405 199V189.545H45.5394V193.446H49.5973V189.545H51.5916V199H49.5973V195.094H45.5394V199H43.5405Z" fill="white" fill-opacity="0.11"/>
<path d="M248.623 197.338V195.764L252.57 189.545H253.928V191.724H253.124L250.636 195.662V195.736H256.245V197.338H248.623ZM253.161 199V196.858L253.198 196.161V189.545H255.072V199H253.161ZM261.03 199.129C260.378 199.129 259.796 199.009 259.285 198.769C258.777 198.529 258.374 198.198 258.075 197.777C257.777 197.355 257.622 196.872 257.609 196.327H259.548C259.57 196.693 259.724 196.99 260.01 197.218C260.296 197.446 260.636 197.56 261.03 197.56C261.344 197.56 261.621 197.49 261.861 197.352C262.104 197.21 262.293 197.015 262.429 196.766C262.567 196.513 262.637 196.224 262.637 195.898C262.637 195.565 262.566 195.273 262.424 195.021C262.286 194.768 262.093 194.571 261.847 194.43C261.601 194.288 261.319 194.216 261.002 194.213C260.725 194.213 260.456 194.27 260.194 194.384C259.936 194.497 259.734 194.653 259.59 194.85L257.812 194.531L258.26 189.545H264.04V191.18H259.908L259.664 193.548H259.719C259.885 193.314 260.136 193.12 260.471 192.966C260.807 192.812 261.182 192.735 261.598 192.735C262.167 192.735 262.675 192.869 263.121 193.137C263.568 193.405 263.92 193.773 264.178 194.24C264.437 194.705 264.565 195.241 264.562 195.847C264.565 196.484 264.417 197.05 264.118 197.546C263.823 198.038 263.409 198.426 262.877 198.709C262.347 198.989 261.732 199.129 261.03 199.129ZM275.294 189.545V191.194H271.019V199H269.02V189.545H275.294ZM276.574 199V189.545H280.304C281.021 189.545 281.632 189.682 282.137 189.956C282.641 190.227 283.026 190.604 283.291 191.087C283.558 191.567 283.692 192.121 283.692 192.749C283.692 193.377 283.557 193.931 283.286 194.411C283.015 194.891 282.623 195.265 282.109 195.533C281.598 195.801 280.979 195.935 280.253 195.935H277.876V194.333H279.93C280.315 194.333 280.632 194.267 280.881 194.134C281.133 193.999 281.321 193.813 281.444 193.576C281.57 193.336 281.633 193.06 281.633 192.749C281.633 192.435 281.57 192.161 281.444 191.928C281.321 191.691 281.133 191.507 280.881 191.378C280.628 191.246 280.308 191.18 279.921 191.18H278.573V199H276.574ZM284.991 199V189.545H286.99V193.446H291.047V189.545H293.042V199H291.047V195.094H286.99V199H284.991Z" fill="white" fill-opacity="0.11"/>
<path d="M175.293 199.129C174.582 199.129 173.95 199.014 173.396 198.783C172.845 198.549 172.413 198.231 172.099 197.827C171.785 197.424 171.628 196.967 171.628 196.456C171.628 196.062 171.717 195.701 171.896 195.371C172.077 195.039 172.323 194.764 172.634 194.545C172.945 194.324 173.293 194.182 173.678 194.12V194.056C173.173 193.954 172.763 193.71 172.45 193.322C172.136 192.931 171.979 192.477 171.979 191.96C171.979 191.471 172.122 191.035 172.408 190.653C172.694 190.269 173.087 189.967 173.585 189.749C174.087 189.527 174.656 189.416 175.293 189.416C175.93 189.416 176.498 189.527 176.997 189.749C177.498 189.97 177.892 190.273 178.179 190.658C178.465 191.04 178.609 191.474 178.613 191.96C178.609 192.48 178.449 192.934 178.132 193.322C177.815 193.71 177.409 193.954 176.914 194.056V194.12C177.292 194.182 177.635 194.324 177.943 194.545C178.254 194.764 178.5 195.039 178.682 195.371C178.866 195.701 178.96 196.062 178.963 196.456C178.96 196.967 178.802 197.424 178.488 197.827C178.174 198.231 177.74 198.549 177.186 198.783C176.635 199.014 176.004 199.129 175.293 199.129ZM175.293 197.661C175.61 197.661 175.887 197.604 176.124 197.49C176.361 197.373 176.546 197.213 176.678 197.01C176.814 196.804 176.881 196.567 176.881 196.299C176.881 196.025 176.812 195.784 176.674 195.575C176.535 195.362 176.347 195.196 176.11 195.076C175.873 194.953 175.601 194.891 175.293 194.891C174.989 194.891 174.716 194.953 174.476 195.076C174.236 195.196 174.047 195.362 173.908 195.575C173.773 195.784 173.705 196.025 173.705 196.299C173.705 196.567 173.771 196.804 173.904 197.01C174.036 197.213 174.222 197.373 174.462 197.49C174.702 197.604 174.979 197.661 175.293 197.661ZM175.293 193.437C175.558 193.437 175.793 193.383 176 193.276C176.206 193.168 176.367 193.019 176.484 192.828C176.601 192.637 176.66 192.417 176.66 192.168C176.66 191.921 176.601 191.706 176.484 191.521C176.367 191.334 176.207 191.187 176.004 191.083C175.801 190.975 175.564 190.921 175.293 190.921C175.026 190.921 174.789 190.975 174.582 191.083C174.376 191.187 174.215 191.334 174.098 191.521C173.984 191.706 173.927 191.921 173.927 192.168C173.927 192.417 173.985 192.637 174.102 192.828C174.219 193.019 174.381 193.168 174.587 193.276C174.793 193.383 175.029 193.437 175.293 193.437ZM189.699 189.545V191.194H185.424V199H183.425V189.545H189.699ZM190.979 199V189.545H194.709C195.426 189.545 196.037 189.682 196.542 189.956C197.047 190.227 197.431 190.604 197.696 191.087C197.964 191.567 198.098 192.121 198.098 192.749C198.098 193.377 197.962 193.931 197.691 194.411C197.42 194.891 197.028 195.265 196.514 195.533C196.003 195.801 195.385 195.935 194.658 195.935H192.281V194.333H194.335C194.72 194.333 195.037 194.267 195.286 194.134C195.539 193.999 195.726 193.813 195.849 193.576C195.976 193.336 196.039 193.06 196.039 192.749C196.039 192.435 195.976 192.161 195.849 191.928C195.726 191.691 195.539 191.507 195.286 191.378C195.034 191.246 194.714 191.18 194.326 191.18H192.978V199H190.979ZM199.396 199V189.545H201.395V193.446H205.453V189.545H207.447V199H205.453V195.094H201.395V199H199.396Z" fill="white" fill-opacity="0.11"/>
<path d="M85.8796 189.545V199H83.8807V191.443H83.8253L81.6602 192.8V191.027L84.0007 189.545H85.8796ZM91.8337 199.208C91.0397 199.205 90.3564 199.009 89.784 198.621C89.2146 198.234 88.7761 197.672 88.4683 196.936C88.1636 196.201 88.0128 195.316 88.0159 194.282C88.0159 193.251 88.1682 192.372 88.4729 191.646C88.7807 190.92 89.2193 190.367 89.7886 189.989C90.3611 189.607 91.0428 189.416 91.8337 189.416C92.6247 189.416 93.3048 189.607 93.8742 189.989C94.4466 190.37 94.8867 190.924 95.1945 191.651C95.5023 192.374 95.6546 193.251 95.6515 194.282C95.6515 195.319 95.4977 196.205 95.1899 196.941C94.8852 197.677 94.4482 198.238 93.8788 198.626C93.3095 199.014 92.6278 199.208 91.8337 199.208ZM91.8337 197.55C92.3754 197.55 92.8078 197.278 93.1309 196.733C93.4541 196.189 93.6141 195.371 93.6111 194.282C93.6111 193.565 93.5372 192.968 93.3895 192.491C93.2448 192.014 93.0386 191.655 92.7709 191.415C92.5062 191.175 92.1938 191.055 91.8337 191.055C91.2951 191.055 90.8643 191.324 90.5411 191.863C90.218 192.402 90.0548 193.208 90.0518 194.282C90.0518 195.008 90.1241 195.615 90.2687 196.101C90.4165 196.584 90.6242 196.947 90.892 197.19C91.1597 197.43 91.4736 197.55 91.8337 197.55ZM100.784 199.208C99.9899 199.205 99.3066 199.009 98.7342 198.621C98.1648 198.234 97.7263 197.672 97.4185 196.936C97.1138 196.201 96.963 195.316 96.9661 194.282C96.9661 193.251 97.1184 192.372 97.4231 191.646C97.7309 190.92 98.1694 190.367 98.7388 189.989C99.3113 189.607 99.993 189.416 100.784 189.416C101.575 189.416 102.255 189.607 102.824 189.989C103.397 190.37 103.837 190.924 104.145 191.651C104.452 192.374 104.605 193.251 104.602 194.282C104.602 195.319 104.448 196.205 104.14 196.941C103.835 197.677 103.398 198.238 102.829 198.626C102.26 199.014 101.578 199.208 100.784 199.208ZM100.784 197.55C101.326 197.55 101.758 197.278 102.081 196.733C102.404 196.189 102.564 195.371 102.561 194.282C102.561 193.565 102.487 192.968 102.34 192.491C102.195 192.014 101.989 191.655 101.721 191.415C101.456 191.175 101.144 191.055 100.784 191.055C100.245 191.055 99.8145 191.324 99.4913 191.863C99.1681 192.402 99.005 193.208 99.002 194.282C99.002 195.008 99.0743 195.615 99.2189 196.101C99.3667 196.584 99.5744 196.947 99.8422 197.19C100.11 197.43 100.424 197.55 100.784 197.55ZM109.734 199.208C108.94 199.205 108.257 199.009 107.684 198.621C107.115 198.234 106.676 197.672 106.369 196.936C106.064 196.201 105.913 195.316 105.916 194.282C105.916 193.251 106.069 192.372 106.373 191.646C106.681 190.92 107.12 190.367 107.689 189.989C108.261 189.607 108.943 189.416 109.734 189.416C110.525 189.416 111.205 189.607 111.775 189.989C112.347 190.37 112.787 190.924 113.095 191.651C113.403 192.374 113.555 193.251 113.552 194.282C113.552 195.319 113.398 196.205 113.09 196.941C112.786 197.677 112.349 198.238 111.779 198.626C111.21 199.014 110.528 199.208 109.734 199.208ZM109.734 197.55C110.276 197.55 110.708 197.278 111.031 196.733C111.354 196.189 111.515 195.371 111.511 194.282C111.511 193.565 111.438 192.968 111.29 192.491C111.145 192.014 110.939 191.655 110.671 191.415C110.407 191.175 110.094 191.055 109.734 191.055C109.196 191.055 108.765 191.324 108.441 191.863C108.118 192.402 107.955 193.208 107.952 194.282C107.952 195.008 108.024 195.615 108.169 196.101C108.317 196.584 108.525 196.947 108.792 197.19C109.06 197.43 109.374 197.55 109.734 197.55ZM124.315 189.545V191.194H120.04V199H118.041V189.545H124.315ZM125.595 199V189.545H129.325C130.042 189.545 130.653 189.682 131.158 189.956C131.663 190.227 132.047 190.604 132.312 191.087C132.58 191.567 132.714 192.121 132.714 192.749C132.714 193.377 132.578 193.931 132.308 194.411C132.037 194.891 131.644 195.265 131.13 195.533C130.619 195.801 130.001 195.935 129.275 195.935H126.897V194.333H128.951C129.336 194.333 129.653 194.267 129.902 194.134C130.155 193.999 130.342 193.813 130.466 193.576C130.592 193.336 130.655 193.06 130.655 192.749C130.655 192.435 130.592 192.161 130.466 191.928C130.342 191.691 130.155 191.507 129.902 191.378C129.65 191.246 129.33 191.18 128.942 191.18H127.594V199H125.595ZM134.012 199V189.545H136.011V193.446H140.069V189.545H142.063V199H140.069V195.094H136.011V199H134.012Z" fill="white" fill-opacity="0.11"/>
<path d="M321.219 199.129C320.567 199.129 319.985 199.009 319.474 198.769C318.967 198.529 318.563 198.198 318.265 197.777C317.966 197.355 317.811 196.872 317.799 196.327H319.738C319.759 196.693 319.913 196.99 320.199 197.218C320.485 197.446 320.826 197.56 321.219 197.56C321.533 197.56 321.81 197.49 322.05 197.352C322.294 197.21 322.483 197.015 322.618 196.766C322.757 196.513 322.826 196.224 322.826 195.898C322.826 195.565 322.755 195.273 322.614 195.021C322.475 194.768 322.283 194.571 322.037 194.43C321.79 194.288 321.509 194.216 321.192 194.213C320.915 194.213 320.645 194.27 320.384 194.384C320.125 194.497 319.924 194.653 319.779 194.85L318.002 194.531L318.45 189.545H324.229V191.18H320.098L319.853 193.548H319.908C320.075 193.314 320.325 193.12 320.661 192.966C320.996 192.812 321.372 192.735 321.787 192.735C322.357 192.735 322.864 192.869 323.311 193.137C323.757 193.405 324.109 193.773 324.368 194.24C324.626 194.705 324.754 195.241 324.751 195.847C324.754 196.484 324.606 197.05 324.308 197.546C324.012 198.038 323.598 198.426 323.066 198.709C322.537 198.989 321.921 199.129 321.219 199.129ZM335.483 189.545V191.194H331.208V199H329.209V189.545H335.483ZM336.763 199V189.545H340.493C341.21 189.545 341.821 189.682 342.326 189.956C342.831 190.227 343.215 190.604 343.48 191.087C343.748 191.567 343.882 192.121 343.882 192.749C343.882 193.377 343.746 193.931 343.475 194.411C343.205 194.891 342.812 195.265 342.298 195.533C341.787 195.801 341.169 195.935 340.442 195.935H338.065V194.333H340.119C340.504 194.333 340.821 194.267 341.07 194.134C341.323 193.999 341.51 193.813 341.634 193.576C341.76 193.336 341.823 193.06 341.823 192.749C341.823 192.435 341.76 192.161 341.634 191.928C341.51 191.691 341.323 191.507 341.07 191.378C340.818 191.246 340.498 191.18 340.11 191.18H338.762V199H336.763ZM345.18 199V189.545H347.179V193.446H351.237V189.545H353.231V199H351.237V195.094H347.179V199H345.18Z" fill="white" fill-opacity="0.11"/>
</g>
<g opacity="0.5">
<path d="M4.26101 106.129C3.57161 106.129 2.95762 106.011 2.41903 105.774C1.88352 105.534 1.46035 105.204 1.1495 104.786C0.841738 104.364 0.683239 103.878 0.674006 103.327H2.68679C2.6991 103.558 2.7745 103.761 2.913 103.936C3.05457 104.109 3.24231 104.243 3.47621 104.338C3.71011 104.433 3.97325 104.481 4.26562 104.481C4.57031 104.481 4.83961 104.427 5.07351 104.32C5.30741 104.212 5.49053 104.063 5.62287 103.872C5.75521 103.681 5.82138 103.461 5.82138 103.212C5.82138 102.959 5.75059 102.736 5.60902 102.542C5.47053 102.345 5.27048 102.191 5.00888 102.081C4.75036 101.97 4.44259 101.914 4.08558 101.914H3.20384V100.446H4.08558C4.38719 100.446 4.65341 100.394 4.88423 100.289C5.11813 100.185 5.29972 100.04 5.42898 99.8555C5.55824 99.6677 5.62287 99.4492 5.62287 99.1999C5.62287 98.9629 5.56593 98.7552 5.45206 98.5767C5.34126 98.3951 5.1843 98.2536 4.98118 98.152C4.78113 98.0504 4.54723 97.9996 4.27947 97.9996C4.00864 97.9996 3.76089 98.0489 3.53622 98.1474C3.31155 98.2428 3.13151 98.3797 2.99609 98.5582C2.86068 98.7367 2.78835 98.946 2.77912 99.1861H0.863281C0.872514 98.6413 1.02794 98.1612 1.32955 97.7457C1.63116 97.3303 2.03741 97.0056 2.5483 96.7717C3.06226 96.5347 3.6424 96.4162 4.28871 96.4162C4.94117 96.4162 5.51207 96.5347 6.00142 96.7717C6.49077 97.0086 6.87086 97.3287 7.14169 97.7319C7.4156 98.132 7.55102 98.5813 7.54794 99.0799C7.55102 99.6093 7.38636 100.051 7.05398 100.405C6.72467 100.759 6.29534 100.983 5.76598 101.079V101.153C6.46153 101.242 6.99089 101.484 7.35405 101.877C7.72029 102.268 7.90187 102.758 7.89879 103.346C7.90187 103.884 7.74645 104.363 7.43253 104.781C7.12169 105.2 6.69235 105.529 6.14453 105.769C5.59671 106.009 4.96887 106.129 4.26101 106.129ZM13.0427 106.208C12.2487 106.205 11.5654 106.009 10.993 105.621C10.4236 105.234 9.98506 104.672 9.67729 103.936C9.3726 103.201 9.2218 102.316 9.22488 101.282C9.22488 100.251 9.37722 99.3723 9.68191 98.646C9.98967 97.9196 10.4282 97.3672 10.9976 96.9886C11.57 96.607 12.2517 96.4162 13.0427 96.4162C13.8337 96.4162 14.5138 96.607 15.0832 96.9886C15.6556 97.3703 16.0957 97.9242 16.4035 98.6506C16.7113 99.3738 16.8636 100.251 16.8605 101.282C16.8605 102.319 16.7066 103.205 16.3989 103.941C16.0942 104.677 15.6572 105.238 15.0878 105.626C14.5184 106.014 13.8367 106.208 13.0427 106.208ZM13.0427 104.55C13.5844 104.55 14.0168 104.278 14.3399 103.733C14.6631 103.189 14.8231 102.371 14.82 101.282C14.82 100.565 14.7462 99.9678 14.5985 99.4908C14.4538 99.0137 14.2476 98.6552 13.9798 98.4151C13.7152 98.1751 13.4028 98.055 13.0427 98.055C12.5041 98.055 12.0732 98.3243 11.7501 98.8629C11.4269 99.4015 11.2638 100.208 11.2607 101.282C11.2607 102.008 11.3331 102.615 11.4777 103.101C11.6254 103.584 11.8332 103.947 12.1009 104.19C12.3687 104.43 12.6826 104.55 13.0427 104.55ZM21.739 106.129C21.0865 106.129 20.5049 106.009 19.994 105.769C19.4862 105.529 19.083 105.198 18.7844 104.777C18.4859 104.355 18.3305 103.872 18.3182 103.327H20.2571C20.2786 103.693 20.4325 103.99 20.7188 104.218C21.005 104.446 21.3451 104.56 21.739 104.56C22.0529 104.56 22.3299 104.49 22.57 104.352C22.8131 104.21 23.0024 104.015 23.1378 103.766C23.2763 103.513 23.3455 103.224 23.3455 102.898C23.3455 102.565 23.2747 102.273 23.1332 102.021C22.9947 101.768 22.8023 101.571 22.5561 101.43C22.3099 101.288 22.0283 101.216 21.7113 101.213C21.4343 101.213 21.165 101.27 20.9034 101.384C20.6449 101.497 20.4433 101.653 20.2987 101.85L18.5213 101.531L18.9691 96.5455H24.7489V98.1797H20.6172L20.3725 100.548H20.4279C20.5941 100.314 20.8449 100.12 21.1804 99.9663C21.5159 99.8124 21.8913 99.7354 22.3068 99.7354C22.8762 99.7354 23.384 99.8693 23.8303 100.137C24.2765 100.405 24.6289 100.773 24.8874 101.24C25.146 101.705 25.2737 102.241 25.2706 102.847C25.2737 103.484 25.1259 104.05 24.8274 104.546C24.532 105.038 24.118 105.426 23.5856 105.709C23.0562 105.989 22.4407 106.129 21.739 106.129ZM36.0028 96.5455V98.1935H31.7279V106H29.729V96.5455H36.0028ZM37.2827 106V96.5455H41.0128C41.7299 96.5455 42.3408 96.6824 42.8455 96.9563C43.3503 97.2272 43.735 97.6042 43.9996 98.0874C44.2674 98.5675 44.4013 99.1214 44.4013 99.7493C44.4013 100.377 44.2659 100.931 43.995 101.411C43.7242 101.891 43.3318 102.265 42.8178 102.533C42.3069 102.801 41.6883 102.935 40.962 102.935H38.5845V101.333H40.6388C41.0236 101.333 41.3406 101.267 41.5898 101.134C41.8422 100.999 42.0299 100.813 42.1531 100.576C42.2792 100.336 42.3423 100.06 42.3423 99.7493C42.3423 99.4354 42.2792 99.1615 42.1531 98.9276C42.0299 98.6906 41.8422 98.5075 41.5898 98.3782C41.3375 98.2459 41.0174 98.1797 40.6296 98.1797H39.2816V106H37.2827ZM45.6997 106V96.5455H47.6986V100.446H51.7565V96.5455H53.7508V106H51.7565V102.094H47.6986V106H45.6997Z" fill="white" fill-opacity="0.06"/>
<path d="M86.261 106.129C85.5716 106.129 84.9576 106.011 84.419 105.774C83.8835 105.534 83.4603 105.204 83.1495 104.786C82.8417 104.364 82.6832 103.878 82.674 103.327H84.6868C84.6991 103.558 84.7745 103.761 84.913 103.936C85.0546 104.109 85.2423 104.243 85.4762 104.338C85.7101 104.433 85.9732 104.481 86.2656 104.481C86.5703 104.481 86.8396 104.427 87.0735 104.32C87.3074 104.212 87.4905 104.063 87.6229 103.872C87.7552 103.681 87.8214 103.461 87.8214 103.212C87.8214 102.959 87.7506 102.736 87.609 102.542C87.4705 102.345 87.2705 102.191 87.0089 102.081C86.7504 101.97 86.4426 101.914 86.0856 101.914H85.2038V100.446H86.0856C86.3872 100.446 86.6534 100.394 86.8842 100.289C87.1181 100.185 87.2997 100.04 87.429 99.8555C87.5582 99.6677 87.6229 99.4492 87.6229 99.1999C87.6229 98.9629 87.5659 98.7552 87.4521 98.5767C87.3413 98.3951 87.1843 98.2536 86.9812 98.152C86.7811 98.0504 86.5472 97.9996 86.2795 97.9996C86.0086 97.9996 85.7609 98.0489 85.5362 98.1474C85.3116 98.2428 85.1315 98.3797 84.9961 98.5582C84.8607 98.7367 84.7884 98.946 84.7791 99.1861H82.8633C82.8725 98.6413 83.0279 98.1612 83.3295 97.7457C83.6312 97.3303 84.0374 97.0056 84.5483 96.7717C85.0623 96.5347 85.6424 96.4162 86.2887 96.4162C86.9412 96.4162 87.5121 96.5347 88.0014 96.7717C88.4908 97.0086 88.8709 97.3287 89.1417 97.7319C89.4156 98.132 89.551 98.5813 89.5479 99.0799C89.551 99.6093 89.3864 100.051 89.054 100.405C88.7247 100.759 88.2953 100.983 87.766 101.079V101.153C88.4615 101.242 88.9909 101.484 89.354 101.877C89.7203 102.268 89.9019 102.758 89.8988 103.346C89.9019 103.884 89.7464 104.363 89.4325 104.781C89.1217 105.2 88.6924 105.529 88.1445 105.769C87.5967 106.009 86.9689 106.129 86.261 106.129ZM95.0427 106.208C94.2487 106.205 93.5654 106.009 92.993 105.621C92.4236 105.234 91.9851 104.672 91.6773 103.936C91.3726 103.201 91.2218 102.316 91.2249 101.282C91.2249 100.251 91.3772 99.3723 91.6819 98.646C91.9897 97.9196 92.4282 97.3672 92.9976 96.9886C93.57 96.607 94.2517 96.4162 95.0427 96.4162C95.8337 96.4162 96.5138 96.607 97.0832 96.9886C97.6556 97.3703 98.0957 97.9242 98.4035 98.6506C98.7113 99.3738 98.8636 100.251 98.8605 101.282C98.8605 102.319 98.7066 103.205 98.3989 103.941C98.0942 104.677 97.6572 105.238 97.0878 105.626C96.5184 106.014 95.8367 106.208 95.0427 106.208ZM95.0427 104.55C95.5844 104.55 96.0168 104.278 96.3399 103.733C96.6631 103.189 96.8231 102.371 96.82 101.282C96.82 100.565 96.7462 99.9678 96.5985 99.4908C96.4538 99.0137 96.2476 98.6552 95.9798 98.4151C95.7152 98.1751 95.4028 98.055 95.0427 98.055C94.5041 98.055 94.0732 98.3243 93.7501 98.8629C93.4269 99.4015 93.2638 100.208 93.2607 101.282C93.2607 102.008 93.3331 102.615 93.4777 103.101C93.6254 103.584 93.8332 103.947 94.1009 104.19C94.3687 104.43 94.6826 104.55 95.0427 104.55ZM109.624 96.5455V98.1935H105.349V106H103.35V96.5455H109.624ZM110.904 106V96.5455H114.634C115.351 96.5455 115.962 96.6824 116.467 96.9563C116.971 97.2272 117.356 97.6042 117.621 98.0874C117.888 98.5675 118.022 99.1214 118.022 99.7493C118.022 100.377 117.887 100.931 117.616 101.411C117.345 101.891 116.953 102.265 116.439 102.533C115.928 102.801 115.309 102.935 114.583 102.935H112.206V101.333H114.26C114.645 101.333 114.962 101.267 115.211 101.134C115.463 100.999 115.651 100.813 115.774 100.576C115.9 100.336 115.963 100.06 115.963 99.7493C115.963 99.4354 115.9 99.1615 115.774 98.9276C115.651 98.6906 115.463 98.5075 115.211 98.3782C114.959 98.2459 114.638 98.1797 114.251 98.1797H112.903V106H110.904ZM119.321 106V96.5455H121.32V100.446H125.378V96.5455H127.372V106H125.378V102.094H121.32V106H119.321Z" fill="white" fill-opacity="0.21"/>
<path d="M160.88 96.5455V106H158.881V98.4428H158.825L156.66 99.8001V98.0273L159.001 96.5455H160.88ZM166.834 106.208C166.04 106.205 165.356 106.009 164.784 105.621C164.215 105.234 163.776 104.672 163.468 103.936C163.164 103.201 163.013 102.316 163.016 101.282C163.016 100.251 163.168 99.3723 163.473 98.646C163.781 97.9196 164.219 97.3672 164.789 96.9886C165.361 96.607 166.043 96.4162 166.834 96.4162C167.625 96.4162 168.305 96.607 168.874 96.9886C169.447 97.3703 169.887 97.9242 170.195 98.6506C170.502 99.3738 170.655 100.251 170.652 101.282C170.652 102.319 170.498 103.205 170.19 103.941C169.885 104.677 169.448 105.238 168.879 105.626C168.309 106.014 167.628 106.208 166.834 106.208ZM166.834 104.55C167.375 104.55 167.808 104.278 168.131 103.733C168.454 103.189 168.614 102.371 168.611 101.282C168.611 100.565 168.537 99.9678 168.389 99.4908C168.245 99.0137 168.039 98.6552 167.771 98.4151C167.506 98.1751 167.194 98.055 166.834 98.055C166.295 98.055 165.864 98.3243 165.541 98.8629C165.218 99.4015 165.055 100.208 165.052 101.282C165.052 102.008 165.124 102.615 165.269 103.101C165.416 103.584 165.624 103.947 165.892 104.19C166.16 104.43 166.474 104.55 166.834 104.55ZM181.415 96.5455V98.1935H177.14V106H175.141V96.5455H181.415ZM182.695 106V96.5455H186.425C187.142 96.5455 187.753 96.6824 188.258 96.9563C188.762 97.2272 189.147 97.6042 189.412 98.0874C189.68 98.5675 189.813 99.1214 189.813 99.7493C189.813 100.377 189.678 100.931 189.407 101.411C189.136 101.891 188.744 102.265 188.23 102.533C187.719 102.801 187.1 102.935 186.374 102.935H183.997V101.333H186.051C186.436 101.333 186.753 101.267 187.002 101.134C187.254 100.999 187.442 100.813 187.565 100.576C187.691 100.336 187.754 100.06 187.754 99.7493C187.754 99.4354 187.691 99.1615 187.565 98.9276C187.442 98.6906 187.254 98.5075 187.002 98.3782C186.75 98.2459 186.43 98.1797 186.042 98.1797H184.694V106H182.695ZM191.112 106V96.5455H193.111V100.446H197.169V96.5455H199.163V106H197.169V102.094H193.111V106H191.112Z" fill="white" fill-opacity="0.11"/>
<path d="M231.88 96.5455V106H229.881V98.4428H229.825L227.66 99.8001V98.0273L230.001 96.5455H231.88ZM237.834 106.208C237.04 106.205 236.356 106.009 235.784 105.621C235.215 105.234 234.776 104.672 234.468 103.936C234.164 103.201 234.013 102.316 234.016 101.282C234.016 100.251 234.168 99.3723 234.473 98.646C234.781 97.9196 235.219 97.3672 235.789 96.9886C236.361 96.607 237.043 96.4162 237.834 96.4162C238.625 96.4162 239.305 96.607 239.874 96.9886C240.447 97.3703 240.887 97.9242 241.195 98.6506C241.502 99.3738 241.655 100.251 241.652 101.282C241.652 102.319 241.498 103.205 241.19 103.941C240.885 104.677 240.448 105.238 239.879 105.626C239.309 106.014 238.628 106.208 237.834 106.208ZM237.834 104.55C238.375 104.55 238.808 104.278 239.131 103.733C239.454 103.189 239.614 102.371 239.611 101.282C239.611 100.565 239.537 99.9678 239.389 99.4908C239.245 99.0137 239.039 98.6552 238.771 98.4151C238.506 98.1751 238.194 98.055 237.834 98.055C237.295 98.055 236.864 98.3243 236.541 98.8629C236.218 99.4015 236.055 100.208 236.052 101.282C236.052 102.008 236.124 102.615 236.269 103.101C236.416 103.584 236.624 103.947 236.892 104.19C237.16 104.43 237.474 104.55 237.834 104.55ZM246.784 106.208C245.99 106.205 245.307 106.009 244.734 105.621C244.165 105.234 243.726 104.672 243.419 103.936C243.114 103.201 242.963 102.316 242.966 101.282C242.966 100.251 243.118 99.3723 243.423 98.646C243.731 97.9196 244.169 97.3672 244.739 96.9886C245.311 96.607 245.993 96.4162 246.784 96.4162C247.575 96.4162 248.255 96.607 248.824 96.9886C249.397 97.3703 249.837 97.9242 250.145 98.6506C250.452 99.3738 250.605 100.251 250.602 101.282C250.602 102.319 250.448 103.205 250.14 103.941C249.835 104.677 249.398 105.238 248.829 105.626C248.26 106.014 247.578 106.208 246.784 106.208ZM246.784 104.55C247.326 104.55 247.758 104.278 248.081 103.733C248.404 103.189 248.564 102.371 248.561 101.282C248.561 100.565 248.487 99.9678 248.34 99.4908C248.195 99.0137 247.989 98.6552 247.721 98.4151C247.456 98.1751 247.144 98.055 246.784 98.055C246.245 98.055 245.814 98.3243 245.491 98.8629C245.168 99.4015 245.005 100.208 245.002 101.282C245.002 102.008 245.074 102.615 245.219 103.101C245.367 103.584 245.574 103.947 245.842 104.19C246.11 104.43 246.424 104.55 246.784 104.55ZM261.365 96.5455V98.1935H257.09V106H255.091V96.5455H261.365ZM262.645 106V96.5455H266.375C267.092 96.5455 267.703 96.6824 268.208 96.9563C268.713 97.2272 269.097 97.6042 269.362 98.0874C269.63 98.5675 269.764 99.1214 269.764 99.7493C269.764 100.377 269.628 100.931 269.357 101.411C269.087 101.891 268.694 102.265 268.18 102.533C267.669 102.801 267.051 102.935 266.324 102.935H263.947V101.333H266.001C266.386 101.333 266.703 101.267 266.952 101.134C267.205 100.999 267.392 100.813 267.515 100.576C267.642 100.336 267.705 100.06 267.705 99.7493C267.705 99.4354 267.642 99.1615 267.515 98.9276C267.392 98.6906 267.205 98.5075 266.952 98.3782C266.7 98.2459 266.38 98.1797 265.992 98.1797H264.644V106H262.645ZM271.062 106V96.5455H273.061V100.446H277.119V96.5455H279.113V106H277.119V102.094H273.061V106H271.062Z" fill="white" fill-opacity="0.21"/>
<path d="M307.623 104.338V102.764L311.57 96.5455H312.928V98.7244H312.124L309.636 102.662V102.736H315.245V104.338H307.623ZM312.161 106V103.858L312.198 103.161V96.5455H314.072V106H312.161ZM320.284 106.208C319.49 106.205 318.807 106.009 318.234 105.621C317.665 105.234 317.226 104.672 316.919 103.936C316.614 103.201 316.463 102.316 316.466 101.282C316.466 100.251 316.618 99.3723 316.923 98.646C317.231 97.9196 317.669 97.3672 318.239 96.9886C318.811 96.607 319.493 96.4162 320.284 96.4162C321.075 96.4162 321.755 96.607 322.324 96.9886C322.897 97.3703 323.337 97.9242 323.645 98.6506C323.952 99.3738 324.105 100.251 324.102 101.282C324.102 102.319 323.948 103.205 323.64 103.941C323.335 104.677 322.898 105.238 322.329 105.626C321.76 106.014 321.078 106.208 320.284 106.208ZM320.284 104.55C320.826 104.55 321.258 104.278 321.581 103.733C321.904 103.189 322.064 102.371 322.061 101.282C322.061 100.565 321.987 99.9678 321.84 99.4908C321.695 99.0137 321.489 98.6552 321.221 98.4151C320.956 98.1751 320.644 98.055 320.284 98.055C319.745 98.055 319.314 98.3243 318.991 98.8629C318.668 99.4015 318.505 100.208 318.502 101.282C318.502 102.008 318.574 102.615 318.719 103.101C318.867 103.584 319.074 103.947 319.342 104.19C319.61 104.43 319.924 104.55 320.284 104.55ZM334.865 96.5455V98.1935H330.59V106H328.591V96.5455H334.865ZM336.145 106V96.5455H339.875C340.592 96.5455 341.203 96.6824 341.708 96.9563C342.213 97.2272 342.597 97.6042 342.862 98.0874C343.13 98.5675 343.264 99.1214 343.264 99.7493C343.264 100.377 343.128 100.931 342.857 101.411C342.587 101.891 342.194 102.265 341.68 102.533C341.169 102.801 340.551 102.935 339.824 102.935H337.447V101.333H339.501C339.886 101.333 340.203 101.267 340.452 101.134C340.705 100.999 340.892 100.813 341.015 100.576C341.142 100.336 341.205 100.06 341.205 99.7493C341.205 99.4354 341.142 99.1615 341.015 98.9276C340.892 98.6906 340.705 98.5075 340.452 98.3782C340.2 98.2459 339.88 98.1797 339.492 98.1797H338.144V106H336.145ZM344.562 106V96.5455H346.561V100.446H350.619V96.5455H352.613V106H350.619V102.094H346.561V106H344.562Z" fill="white" fill-opacity="0.08"/>
</g>
<g opacity="0.5">
<path d="M67.7663 16V14.5597L71.1317 11.4435C71.418 11.1665 71.658 10.9173 71.8519 10.6957C72.0489 10.4741 72.1982 10.2571 72.2997 10.0447C72.4013 9.82931 72.4521 9.59695 72.4521 9.34766C72.4521 9.07067 72.389 8.83215 72.2628 8.6321C72.1366 8.42898 71.9643 8.27356 71.7457 8.16584C71.5272 8.05504 71.2795 7.99964 71.0025 7.99964C70.7132 7.99964 70.4608 8.05812 70.2454 8.17507C70.0299 8.29202 69.8638 8.45975 69.7468 8.67827C69.6299 8.89678 69.5714 9.15684 69.5714 9.45845H67.674C67.674 8.83984 67.814 8.30279 68.0941 7.8473C68.3742 7.39181 68.7666 7.03942 69.2713 6.79013C69.776 6.54084 70.3577 6.41619 71.0163 6.41619C71.6934 6.41619 72.2828 6.53622 72.7844 6.77628C73.2892 7.01326 73.6816 7.34257 73.9616 7.7642C74.2417 8.18584 74.3817 8.66903 74.3817 9.21378C74.3817 9.57079 74.311 9.92318 74.1694 10.271C74.0309 10.6187 73.7831 11.005 73.4261 11.4297C73.0691 11.8513 72.5659 12.3576 71.9165 12.9485L70.5362 14.3011V14.3658H74.5064V16H67.7663ZM76.3287 16L80.2481 8.24432V8.17969H75.6824V6.54545H82.3163V8.20277L78.3923 16H76.3287ZM93.0242 6.54545V8.19354H88.7494V16H86.7504V6.54545H93.0242ZM94.3042 16V6.54545H98.0343C98.7514 6.54545 99.3623 6.68241 99.867 6.95632C100.372 7.22715 100.756 7.60417 101.021 8.08736C101.289 8.56747 101.423 9.12145 101.423 9.74929C101.423 10.3771 101.287 10.9311 101.017 11.4112C100.746 11.8913 100.353 12.2653 99.8393 12.533C99.3284 12.8008 98.7098 12.9347 97.9835 12.9347H95.606V11.3327H97.6603C98.045 11.3327 98.362 11.2666 98.6113 11.1342C98.8637 10.9988 99.0514 10.8126 99.1745 10.5756C99.3007 10.3356 99.3638 10.0601 99.3638 9.74929C99.3638 9.43537 99.3007 9.16146 99.1745 8.92756C99.0514 8.69058 98.8637 8.50746 98.6113 8.3782C98.359 8.24586 98.0389 8.17969 97.6511 8.17969H96.3031V16H94.3042ZM102.721 16V6.54545H104.72V10.4464H108.778V6.54545H110.772V16H108.778V12.0945H104.72V16H102.721Z" fill="white" fill-opacity="0.14"/>
<path d="M1.62322 14.3381V12.7638L5.57031 6.54545H6.92756V8.72443H6.12429L3.63601 12.6623V12.7362H9.24503V14.3381H1.62322ZM6.16122 16V13.858L6.19815 13.1609V6.54545H8.07244V16H6.16122ZM19.9149 6.54545V8.19354H15.64V16H13.6411V6.54545H19.9149ZM21.1948 16V6.54545H24.9249C25.642 6.54545 26.2529 6.68241 26.7576 6.95632C27.2624 7.22715 27.6471 7.60417 27.9118 8.08736C28.1795 8.56747 28.3134 9.12145 28.3134 9.74929C28.3134 10.3771 28.178 10.9311 27.9071 11.4112C27.6363 11.8913 27.2439 12.2653 26.7299 12.533C26.219 12.8008 25.6004 12.9347 24.8741 12.9347H22.4966V11.3327H24.551C24.9357 11.3327 25.2527 11.2666 25.502 11.1342C25.7543 10.9988 25.9421 10.8126 26.0652 10.5756C26.1913 10.3356 26.2544 10.0601 26.2544 9.74929C26.2544 9.43537 26.1913 9.16146 26.0652 8.92756C25.9421 8.69058 25.7543 8.50746 25.502 8.3782C25.2496 8.24586 24.9295 8.17969 24.5417 8.17969H23.1937V16H21.1948ZM29.6118 16V6.54545H31.6107V10.4464H35.6686V6.54545H37.6629V16H35.6686V12.0945H31.6107V16H29.6118Z" fill="white" fill-opacity="0.11"/>
<path d="M144.219 16.1293C143.567 16.1293 142.985 16.0092 142.474 15.7692C141.967 15.5291 141.563 15.1983 141.265 14.7766C140.966 14.355 140.811 13.8718 140.799 13.3271H142.738C142.759 13.6933 142.913 13.9903 143.199 14.218C143.485 14.4458 143.826 14.5597 144.219 14.5597C144.533 14.5597 144.81 14.4904 145.05 14.3519C145.294 14.2103 145.483 14.0149 145.618 13.7656C145.757 13.5133 145.826 13.224 145.826 12.8977C145.826 12.5653 145.755 12.273 145.614 12.0206C145.475 11.7682 145.283 11.5713 145.037 11.4297C144.79 11.2881 144.509 11.2158 144.192 11.2127C143.915 11.2127 143.645 11.2696 143.384 11.3835C143.125 11.4974 142.924 11.6528 142.779 11.8498L141.002 11.5312L141.45 6.54545H147.229V8.17969H143.098L142.853 10.5479H142.908C143.075 10.314 143.325 10.1201 143.661 9.96626C143.996 9.81238 144.372 9.73544 144.787 9.73544C145.357 9.73544 145.864 9.86932 146.311 10.1371C146.757 10.4048 147.109 10.7726 147.368 11.2404C147.626 11.7051 147.754 12.2406 147.751 12.8469C147.754 13.484 147.606 14.0503 147.308 14.5458C147.012 15.0382 146.598 15.426 146.066 15.7092C145.537 15.9892 144.921 16.1293 144.219 16.1293ZM152.852 16.2077C152.058 16.2047 151.375 16.0092 150.803 15.6214C150.233 15.2337 149.795 14.672 149.487 13.9364C149.182 13.2009 149.031 12.3161 149.034 11.282C149.034 10.2509 149.187 9.37228 149.491 8.64595C149.799 7.91963 150.238 7.36719 150.807 6.98864C151.38 6.60701 152.061 6.41619 152.852 6.41619C153.643 6.41619 154.323 6.60701 154.893 6.98864C155.465 7.37026 155.905 7.92424 156.213 8.65057C156.521 9.37382 156.673 10.2509 156.67 11.282C156.67 12.3191 156.516 13.2055 156.208 13.9411C155.904 14.6766 155.467 15.2383 154.897 15.6261C154.328 16.0138 153.646 16.2077 152.852 16.2077ZM152.852 14.5504C153.394 14.5504 153.826 14.2781 154.15 13.7333C154.473 13.1886 154.633 12.3714 154.63 11.282C154.63 10.5649 154.556 9.9678 154.408 9.49077C154.263 9.01373 154.057 8.65518 153.789 8.41513C153.525 8.17507 153.212 8.05504 152.852 8.05504C152.314 8.05504 151.883 8.32434 151.56 8.86293C151.237 9.40151 151.073 10.2079 151.07 11.282C151.07 12.0083 151.143 12.6146 151.287 13.1009C151.435 13.584 151.643 13.9472 151.911 14.1903C152.178 14.4304 152.492 14.5504 152.852 14.5504ZM161.802 16.2077C161.008 16.2047 160.325 16.0092 159.753 15.6214C159.183 15.2337 158.745 14.672 158.437 13.9364C158.132 13.2009 157.982 12.3161 157.985 11.282C157.985 10.2509 158.137 9.37228 158.442 8.64595C158.749 7.91963 159.188 7.36719 159.757 6.98864C160.33 6.60701 161.012 6.41619 161.802 6.41619C162.593 6.41619 163.274 6.60701 163.843 6.98864C164.415 7.37026 164.855 7.92424 165.163 8.65057C165.471 9.37382 165.623 10.2509 165.62 11.282C165.62 12.3191 165.466 13.2055 165.159 13.9411C164.854 14.6766 164.417 15.2383 163.848 15.6261C163.278 16.0138 162.597 16.2077 161.802 16.2077ZM161.802 14.5504C162.344 14.5504 162.777 14.2781 163.1 13.7333C163.423 13.1886 163.583 12.3714 163.58 11.282C163.58 10.5649 163.506 9.9678 163.358 9.49077C163.214 9.01373 163.007 8.65518 162.74 8.41513C162.475 8.17507 162.163 8.05504 161.802 8.05504C161.264 8.05504 160.833 8.32434 160.51 8.86293C160.187 9.40151 160.024 10.2079 160.021 11.282C160.021 12.0083 160.093 12.6146 160.237 13.1009C160.385 13.584 160.593 13.9472 160.861 14.1903C161.128 14.4304 161.442 14.5504 161.802 14.5504ZM176.384 6.54545V8.19354H172.109V16H170.11V6.54545H176.384ZM177.664 16V6.54545H181.394C182.111 6.54545 182.722 6.68241 183.226 6.95632C183.731 7.22715 184.116 7.60417 184.381 8.08736C184.648 8.56747 184.782 9.12145 184.782 9.74929C184.782 10.3771 184.647 10.9311 184.376 11.4112C184.105 11.8913 183.713 12.2653 183.199 12.533C182.688 12.8008 182.069 12.9347 181.343 12.9347H178.965V11.3327H181.02C181.404 11.3327 181.721 11.2666 181.971 11.1342C182.223 10.9988 182.411 10.8126 182.534 10.5756C182.66 10.3356 182.723 10.0601 182.723 9.74929C182.723 9.43537 182.66 9.16146 182.534 8.92756C182.411 8.69058 182.223 8.50746 181.971 8.3782C181.718 8.24586 181.398 8.17969 181.01 8.17969H179.662V16H177.664ZM186.081 16V6.54545H188.079V10.4464H192.137V6.54545H194.132V16H192.137V12.0945H188.079V16H186.081Z" fill="white" fill-opacity="0.11"/>
<path d="M223.766 13V11.5597L227.132 8.44354C227.418 8.16655 227.658 7.91726 227.852 7.69567C228.049 7.47408 228.198 7.2571 228.3 7.04474C228.401 6.82931 228.452 6.59695 228.452 6.34766C228.452 6.07067 228.389 5.83215 228.263 5.6321C228.137 5.42898 227.964 5.27356 227.746 5.16584C227.527 5.05504 227.279 4.99964 227.002 4.99964C226.713 4.99964 226.461 5.05812 226.245 5.17507C226.03 5.29202 225.864 5.45975 225.747 5.67827C225.63 5.89678 225.571 6.15684 225.571 6.45845H223.674C223.674 5.83984 223.814 5.30279 224.094 4.8473C224.374 4.39181 224.767 4.03942 225.271 3.79013C225.776 3.54084 226.358 3.41619 227.016 3.41619C227.693 3.41619 228.283 3.53622 228.784 3.77628C229.289 4.01326 229.682 4.34257 229.962 4.7642C230.242 5.18584 230.382 5.66903 230.382 6.21378C230.382 6.57079 230.311 6.92318 230.169 7.27095C230.031 7.61873 229.783 8.00497 229.426 8.42969C229.069 8.85133 228.566 9.3576 227.917 9.94851L226.536 11.3011V11.3658H230.506V13H223.766ZM231.955 13V11.5597L235.32 8.44354C235.606 8.16655 235.847 7.91726 236.04 7.69567C236.237 7.47408 236.387 7.2571 236.488 7.04474C236.59 6.82931 236.641 6.59695 236.641 6.34766C236.641 6.07067 236.577 5.83215 236.451 5.6321C236.325 5.42898 236.153 5.27356 235.934 5.16584C235.716 5.05504 235.468 4.99964 235.191 4.99964C234.902 4.99964 234.649 5.05812 234.434 5.17507C234.218 5.29202 234.052 5.45975 233.935 5.67827C233.818 5.89678 233.76 6.15684 233.76 6.45845H231.862C231.862 5.83984 232.003 5.30279 232.283 4.8473C232.563 4.39181 232.955 4.03942 233.46 3.79013C233.965 3.54084 234.546 3.41619 235.205 3.41619C235.882 3.41619 236.471 3.53622 236.973 3.77628C237.478 4.01326 237.87 4.34257 238.15 4.7642C238.43 5.18584 238.57 5.66903 238.57 6.21378C238.57 6.57079 238.499 6.92318 238.358 7.27095C238.219 7.61873 237.972 8.00497 237.615 8.42969C237.258 8.85133 236.754 9.3576 236.105 9.94851L234.725 11.3011V11.3658H238.695V13H231.955ZM240.143 13V11.5597L243.509 8.44354C243.795 8.16655 244.035 7.91726 244.229 7.69567C244.426 7.47408 244.575 7.2571 244.677 7.04474C244.778 6.82931 244.829 6.59695 244.829 6.34766C244.829 6.07067 244.766 5.83215 244.64 5.6321C244.514 5.42898 244.341 5.27356 244.123 5.16584C243.904 5.05504 243.656 4.99964 243.379 4.99964C243.09 4.99964 242.838 5.05812 242.622 5.17507C242.407 5.29202 242.241 5.45975 242.124 5.67827C242.007 5.89678 241.948 6.15684 241.948 6.45845H240.051C240.051 5.83984 240.191 5.30279 240.471 4.8473C240.751 4.39181 241.144 4.03942 241.648 3.79013C242.153 3.54084 242.735 3.41619 243.393 3.41619C244.07 3.41619 244.66 3.53622 245.161 3.77628C245.666 4.01326 246.059 4.34257 246.339 4.7642C246.619 5.18584 246.759 5.66903 246.759 6.21378C246.759 6.57079 246.688 6.92318 246.546 7.27095C246.408 7.61873 246.16 8.00497 245.803 8.42969C245.446 8.85133 244.943 9.3576 244.294 9.94851L242.913 11.3011V11.3658H246.883V13H240.143ZM257.67 3.54545V5.19354H253.395V13H251.396V3.54545H257.67ZM258.95 13V3.54545H262.68C263.397 3.54545 264.008 3.68241 264.513 3.95632C265.017 4.22715 265.402 4.60417 265.667 5.08736C265.934 5.56747 266.068 6.12145 266.068 6.74929C266.068 7.37713 265.933 7.93111 265.662 8.41122C265.391 8.89133 264.999 9.26527 264.485 9.53303C263.974 9.80078 263.355 9.93466 262.629 9.93466H260.252V8.33274H262.306C262.691 8.33274 263.008 8.26657 263.257 8.13423C263.509 7.99882 263.697 7.81262 263.82 7.57564C263.946 7.33558 264.009 7.06013 264.009 6.74929C264.009 6.43537 263.946 6.16146 263.82 5.92756C263.697 5.69058 263.509 5.50746 263.257 5.3782C263.004 5.24586 262.684 5.17969 262.297 5.17969H260.949V13H258.95ZM267.367 13V3.54545H269.366V7.44638H273.423V3.54545H275.418V13H273.423V9.09446H269.366V13H267.367Z" fill="white" fill-opacity="0.07"/>
<path d="M309.88 3.54545V13H307.881V5.44283H307.825L305.66 6.80007V5.02734L308.001 3.54545H309.88ZM316.24 3.54545V13H314.241V5.44283H314.186L312.021 6.80007V5.02734L314.361 3.54545H316.24ZM322.6 3.54545V13H320.601V5.44283H320.546L318.381 6.80007V5.02734L320.721 3.54545H322.6ZM334.185 3.54545V5.19354H329.911V13H327.912V3.54545H334.185ZM335.465 13V3.54545H339.195C339.912 3.54545 340.523 3.68241 341.028 3.95632C341.533 4.22715 341.918 4.60417 342.182 5.08736C342.45 5.56747 342.584 6.12145 342.584 6.74929C342.584 7.37713 342.448 7.93111 342.178 8.41122C341.907 8.89133 341.514 9.26527 341 9.53303C340.49 9.80078 339.871 9.93466 339.145 9.93466H336.767V8.33274H338.821C339.206 8.33274 339.523 8.26657 339.772 8.13423C340.025 7.99882 340.213 7.81262 340.336 7.57564C340.462 7.33558 340.525 7.06013 340.525 6.74929C340.525 6.43537 340.462 6.16146 340.336 5.92756C340.213 5.69058 340.025 5.50746 339.772 5.3782C339.52 5.24586 339.2 5.17969 338.812 5.17969H337.464V13H335.465ZM343.882 13V3.54545H345.881V7.44638H349.939V3.54545H351.933V13H349.939V9.09446H345.881V13H343.882Z" fill="white" fill-opacity="0.05"/>
</g>
<g opacity="0.5">
<path d="M13.8796 51.5455V61H11.8807V53.4428H11.8253L9.66016 54.8001V53.0273L12.0007 51.5455H13.8796ZM19.5798 61.1293C18.9273 61.1293 18.3457 61.0092 17.8348 60.7692C17.327 60.5291 16.9238 60.1983 16.6253 59.7766C16.3267 59.355 16.1713 58.8718 16.159 58.3271H18.0979C18.1195 58.6933 18.2733 58.9903 18.5596 59.218C18.8458 59.4458 19.1859 59.5597 19.5798 59.5597C19.8937 59.5597 20.1707 59.4904 20.4108 59.3519C20.6539 59.2103 20.8432 59.0149 20.9786 58.7656C21.1171 58.5133 21.1863 58.224 21.1863 57.8977C21.1863 57.5653 21.1156 57.273 20.974 57.0206C20.8355 56.7682 20.6431 56.5713 20.3969 56.4297C20.1507 56.2881 19.8691 56.2158 19.5521 56.2127C19.2751 56.2127 19.0058 56.2696 18.7442 56.3835C18.4857 56.4974 18.2841 56.6528 18.1395 56.8498L16.3621 56.5312L16.8099 51.5455H22.5898V53.1797H18.458L18.2133 55.5479H18.2687C18.4349 55.314 18.6858 55.1201 19.0212 54.9663C19.3567 54.8124 19.7322 54.7354 20.1476 54.7354C20.717 54.7354 21.2248 54.8693 21.6711 55.1371C22.1173 55.4048 22.4697 55.7726 22.7282 56.2404C22.9868 56.7051 23.1145 57.2406 23.1114 57.8469C23.1145 58.484 22.9668 59.0503 22.6682 59.5458C22.3728 60.0382 21.9588 60.426 21.4264 60.7092C20.897 60.9892 20.2815 61.1293 19.5798 61.1293ZM33.8436 51.5455V53.1935H29.5687V61H27.5698V51.5455H33.8436ZM35.1235 61V51.5455H38.8536C39.5707 51.5455 40.1816 51.6824 40.6863 51.9563C41.1911 52.2272 41.5758 52.6042 41.8405 53.0874C42.1082 53.5675 42.2421 54.1214 42.2421 54.7493C42.2421 55.3771 42.1067 55.9311 41.8358 56.4112C41.565 56.8913 41.1726 57.2653 40.6586 57.533C40.1478 57.8008 39.5291 57.9347 38.8028 57.9347H36.4253V56.3327H38.4797C38.8644 56.3327 39.1814 56.2666 39.4307 56.1342C39.683 55.9988 39.8708 55.8126 39.9939 55.5756C40.1201 55.3356 40.1831 55.0601 40.1831 54.7493C40.1831 54.4354 40.1201 54.1615 39.9939 53.9276C39.8708 53.6906 39.683 53.5075 39.4307 53.3782C39.1783 53.2459 38.8582 53.1797 38.4704 53.1797H37.1224V61H35.1235ZM43.5405 61V51.5455H45.5394V55.4464H49.5973V51.5455H51.5916V61H49.5973V57.0945H45.5394V61H43.5405Z" fill="white" fill-opacity="0.09"/>
<path d="M248.623 59.3381V57.7638L252.57 51.5455H253.928V53.7244H253.124L250.636 57.6623V57.7362H256.245V59.3381H248.623ZM253.161 61V58.858L253.198 58.1609V51.5455H255.072V61H253.161ZM261.03 61.1293C260.378 61.1293 259.796 61.0092 259.285 60.7692C258.777 60.5291 258.374 60.1983 258.075 59.7766C257.777 59.355 257.622 58.8718 257.609 58.3271H259.548C259.57 58.6933 259.724 58.9903 260.01 59.218C260.296 59.4458 260.636 59.5597 261.03 59.5597C261.344 59.5597 261.621 59.4904 261.861 59.3519C262.104 59.2103 262.293 59.0149 262.429 58.7656C262.567 58.5133 262.637 58.224 262.637 57.8977C262.637 57.5653 262.566 57.273 262.424 57.0206C262.286 56.7682 262.093 56.5713 261.847 56.4297C261.601 56.2881 261.319 56.2158 261.002 56.2127C260.725 56.2127 260.456 56.2696 260.194 56.3835C259.936 56.4974 259.734 56.6528 259.59 56.8498L257.812 56.5312L258.26 51.5455H264.04V53.1797H259.908L259.664 55.5479H259.719C259.885 55.314 260.136 55.1201 260.471 54.9663C260.807 54.8124 261.182 54.7354 261.598 54.7354C262.167 54.7354 262.675 54.8693 263.121 55.1371C263.568 55.4048 263.92 55.7726 264.178 56.2404C264.437 56.7051 264.565 57.2406 264.562 57.8469C264.565 58.484 264.417 59.0503 264.118 59.5458C263.823 60.0382 263.409 60.426 262.877 60.7092C262.347 60.9892 261.732 61.1293 261.03 61.1293ZM275.294 51.5455V53.1935H271.019V61H269.02V51.5455H275.294ZM276.574 61V51.5455H280.304C281.021 51.5455 281.632 51.6824 282.137 51.9563C282.641 52.2272 283.026 52.6042 283.291 53.0874C283.558 53.5675 283.692 54.1214 283.692 54.7493C283.692 55.3771 283.557 55.9311 283.286 56.4112C283.015 56.8913 282.623 57.2653 282.109 57.533C281.598 57.8008 280.979 57.9347 280.253 57.9347H277.876V56.3327H279.93C280.315 56.3327 280.632 56.2666 280.881 56.1342C281.133 55.9988 281.321 55.8126 281.444 55.5756C281.57 55.3356 281.633 55.0601 281.633 54.7493C281.633 54.4354 281.57 54.1615 281.444 53.9276C281.321 53.6906 281.133 53.5075 280.881 53.3782C280.628 53.2459 280.308 53.1797 279.921 53.1797H278.573V61H276.574ZM284.991 61V51.5455H286.99V55.4464H291.047V51.5455H293.042V61H291.047V57.0945H286.99V61H284.991Z" fill="white" fill-opacity="0.09"/>
<path d="M175.293 61.1293C174.582 61.1293 173.95 61.0138 173.396 60.783C172.845 60.5491 172.413 60.2306 172.099 59.8274C171.785 59.4242 171.628 58.9672 171.628 58.4563C171.628 58.0624 171.717 57.7008 171.896 57.3714C172.077 57.0391 172.323 56.7636 172.634 56.5451C172.945 56.3235 173.293 56.1819 173.678 56.1204V56.0558C173.173 55.9542 172.763 55.7095 172.45 55.3217C172.136 54.9309 171.979 54.4769 171.979 53.9599C171.979 53.4705 172.122 53.035 172.408 52.6534C172.694 52.2687 173.087 51.9671 173.585 51.7486C174.087 51.527 174.656 51.4162 175.293 51.4162C175.93 51.4162 176.498 51.527 176.997 51.7486C177.498 51.9702 177.892 52.2733 178.179 52.658C178.465 53.0397 178.609 53.4736 178.613 53.9599C178.609 54.48 178.449 54.9339 178.132 55.3217C177.815 55.7095 177.409 55.9542 176.914 56.0558V56.1204C177.292 56.1819 177.635 56.3235 177.943 56.5451C178.254 56.7636 178.5 57.0391 178.682 57.3714C178.866 57.7008 178.96 58.0624 178.963 58.4563C178.96 58.9672 178.802 59.4242 178.488 59.8274C178.174 60.2306 177.74 60.5491 177.186 60.783C176.635 61.0138 176.004 61.1293 175.293 61.1293ZM175.293 59.6612C175.61 59.6612 175.887 59.6043 176.124 59.4904C176.361 59.3735 176.546 59.2134 176.678 59.0103C176.814 58.8041 176.881 58.5671 176.881 58.2994C176.881 58.0254 176.812 57.7839 176.674 57.5746C176.535 57.3622 176.347 57.196 176.11 57.076C175.873 56.9529 175.601 56.8913 175.293 56.8913C174.989 56.8913 174.716 56.9529 174.476 57.076C174.236 57.196 174.047 57.3622 173.908 57.5746C173.773 57.7839 173.705 58.0254 173.705 58.2994C173.705 58.5671 173.771 58.8041 173.904 59.0103C174.036 59.2134 174.222 59.3735 174.462 59.4904C174.702 59.6043 174.979 59.6612 175.293 59.6612ZM175.293 55.4371C175.558 55.4371 175.793 55.3833 176 55.2756C176.206 55.1679 176.367 55.0186 176.484 54.8278C176.601 54.637 176.66 54.4169 176.66 54.1676C176.66 53.9214 176.601 53.706 176.484 53.5213C176.367 53.3336 176.207 53.1874 176.004 53.0827C175.801 52.975 175.564 52.9212 175.293 52.9212C175.026 52.9212 174.789 52.975 174.582 53.0827C174.376 53.1874 174.215 53.3336 174.098 53.5213C173.984 53.706 173.927 53.9214 173.927 54.1676C173.927 54.4169 173.985 54.637 174.102 54.8278C174.219 55.0186 174.381 55.1679 174.587 55.2756C174.793 55.3833 175.029 55.4371 175.293 55.4371ZM189.699 51.5455V53.1935H185.424V61H183.425V51.5455H189.699ZM190.979 61V51.5455H194.709C195.426 51.5455 196.037 51.6824 196.542 51.9563C197.047 52.2272 197.431 52.6042 197.696 53.0874C197.964 53.5675 198.098 54.1214 198.098 54.7493C198.098 55.3771 197.962 55.9311 197.691 56.4112C197.42 56.8913 197.028 57.2653 196.514 57.533C196.003 57.8008 195.385 57.9347 194.658 57.9347H192.281V56.3327H194.335C194.72 56.3327 195.037 56.2666 195.286 56.1342C195.539 55.9988 195.726 55.8126 195.849 55.5756C195.976 55.3356 196.039 55.0601 196.039 54.7493C196.039 54.4354 195.976 54.1615 195.849 53.9276C195.726 53.6906 195.539 53.5075 195.286 53.3782C195.034 53.2459 194.714 53.1797 194.326 53.1797H192.978V61H190.979ZM199.396 61V51.5455H201.395V55.4464H205.453V51.5455H207.447V61H205.453V57.0945H201.395V61H199.396Z" fill="white" fill-opacity="0.11"/>
<path d="M85.8796 51.5455V61H83.8807V53.4428H83.8253L81.6602 54.8001V53.0273L84.0007 51.5455H85.8796ZM91.8337 61.2077C91.0397 61.2047 90.3564 61.0092 89.784 60.6214C89.2146 60.2337 88.7761 59.672 88.4683 58.9364C88.1636 58.2009 88.0128 57.3161 88.0159 56.282C88.0159 55.2509 88.1682 54.3723 88.4729 53.646C88.7807 52.9196 89.2193 52.3672 89.7886 51.9886C90.3611 51.607 91.0428 51.4162 91.8337 51.4162C92.6247 51.4162 93.3048 51.607 93.8742 51.9886C94.4466 52.3703 94.8867 52.9242 95.1945 53.6506C95.5023 54.3738 95.6546 55.2509 95.6515 56.282C95.6515 57.3191 95.4977 58.2055 95.1899 58.9411C94.8852 59.6766 94.4482 60.2383 93.8788 60.6261C93.3095 61.0138 92.6278 61.2077 91.8337 61.2077ZM91.8337 59.5504C92.3754 59.5504 92.8078 59.2781 93.1309 58.7333C93.4541 58.1886 93.6141 57.3714 93.6111 56.282C93.6111 55.5649 93.5372 54.9678 93.3895 54.4908C93.2448 54.0137 93.0386 53.6552 92.7709 53.4151C92.5062 53.1751 92.1938 53.055 91.8337 53.055C91.2951 53.055 90.8643 53.3243 90.5411 53.8629C90.218 54.4015 90.0548 55.2079 90.0518 56.282C90.0518 57.0083 90.1241 57.6146 90.2687 58.1009C90.4165 58.584 90.6242 58.9472 90.892 59.1903C91.1597 59.4304 91.4736 59.5504 91.8337 59.5504ZM100.784 61.2077C99.9899 61.2047 99.3066 61.0092 98.7342 60.6214C98.1648 60.2337 97.7263 59.672 97.4185 58.9364C97.1138 58.2009 96.963 57.3161 96.9661 56.282C96.9661 55.2509 97.1184 54.3723 97.4231 53.646C97.7309 52.9196 98.1694 52.3672 98.7388 51.9886C99.3113 51.607 99.993 51.4162 100.784 51.4162C101.575 51.4162 102.255 51.607 102.824 51.9886C103.397 52.3703 103.837 52.9242 104.145 53.6506C104.452 54.3738 104.605 55.2509 104.602 56.282C104.602 57.3191 104.448 58.2055 104.14 58.9411C103.835 59.6766 103.398 60.2383 102.829 60.6261C102.26 61.0138 101.578 61.2077 100.784 61.2077ZM100.784 59.5504C101.326 59.5504 101.758 59.2781 102.081 58.7333C102.404 58.1886 102.564 57.3714 102.561 56.282C102.561 55.5649 102.487 54.9678 102.34 54.4908C102.195 54.0137 101.989 53.6552 101.721 53.4151C101.456 53.1751 101.144 53.055 100.784 53.055C100.245 53.055 99.8145 53.3243 99.4913 53.8629C99.1681 54.4015 99.005 55.2079 99.002 56.282C99.002 57.0083 99.0743 57.6146 99.2189 58.1009C99.3667 58.584 99.5744 58.9472 99.8422 59.1903C100.11 59.4304 100.424 59.5504 100.784 59.5504ZM109.734 61.2077C108.94 61.2047 108.257 61.0092 107.684 60.6214C107.115 60.2337 106.676 59.672 106.369 58.9364C106.064 58.2009 105.913 57.3161 105.916 56.282C105.916 55.2509 106.069 54.3723 106.373 53.646C106.681 52.9196 107.12 52.3672 107.689 51.9886C108.261 51.607 108.943 51.4162 109.734 51.4162C110.525 51.4162 111.205 51.607 111.775 51.9886C112.347 52.3703 112.787 52.9242 113.095 53.6506C113.403 54.3738 113.555 55.2509 113.552 56.282C113.552 57.3191 113.398 58.2055 113.09 58.9411C112.786 59.6766 112.349 60.2383 111.779 60.6261C111.21 61.0138 110.528 61.2077 109.734 61.2077ZM109.734 59.5504C110.276 59.5504 110.708 59.2781 111.031 58.7333C111.354 58.1886 111.515 57.3714 111.511 56.282C111.511 55.5649 111.438 54.9678 111.29 54.4908C111.145 54.0137 110.939 53.6552 110.671 53.4151C110.407 53.1751 110.094 53.055 109.734 53.055C109.196 53.055 108.765 53.3243 108.441 53.8629C108.118 54.4015 107.955 55.2079 107.952 56.282C107.952 57.0083 108.024 57.6146 108.169 58.1009C108.317 58.584 108.525 58.9472 108.792 59.1903C109.06 59.4304 109.374 59.5504 109.734 59.5504ZM124.315 51.5455V53.1935H120.04V61H118.041V51.5455H124.315ZM125.595 61V51.5455H129.325C130.042 51.5455 130.653 51.6824 131.158 51.9563C131.663 52.2272 132.047 52.6042 132.312 53.0874C132.58 53.5675 132.714 54.1214 132.714 54.7493C132.714 55.3771 132.578 55.9311 132.308 56.4112C132.037 56.8913 131.644 57.2653 131.13 57.533C130.619 57.8008 130.001 57.9347 129.275 57.9347H126.897V56.3327H128.951C129.336 56.3327 129.653 56.2666 129.902 56.1342C130.155 55.9988 130.342 55.8126 130.466 55.5756C130.592 55.3356 130.655 55.0601 130.655 54.7493C130.655 54.4354 130.592 54.1615 130.466 53.9276C130.342 53.6906 130.155 53.5075 129.902 53.3782C129.65 53.2459 129.33 53.1797 128.942 53.1797H127.594V61H125.595ZM134.012 61V51.5455H136.011V55.4464H140.069V51.5455H142.063V61H140.069V57.0945H136.011V61H134.012Z" fill="white" fill-opacity="0.18"/>
<path d="M321.219 61.1293C320.567 61.1293 319.985 61.0092 319.474 60.7692C318.967 60.5291 318.563 60.1983 318.265 59.7766C317.966 59.355 317.811 58.8718 317.799 58.3271H319.738C319.759 58.6933 319.913 58.9903 320.199 59.218C320.485 59.4458 320.826 59.5597 321.219 59.5597C321.533 59.5597 321.81 59.4904 322.05 59.3519C322.294 59.2103 322.483 59.0149 322.618 58.7656C322.757 58.5133 322.826 58.224 322.826 57.8977C322.826 57.5653 322.755 57.273 322.614 57.0206C322.475 56.7682 322.283 56.5713 322.037 56.4297C321.79 56.2881 321.509 56.2158 321.192 56.2127C320.915 56.2127 320.645 56.2696 320.384 56.3835C320.125 56.4974 319.924 56.6528 319.779 56.8498L318.002 56.5312L318.45 51.5455H324.229V53.1797H320.098L319.853 55.5479H319.908C320.075 55.314 320.325 55.1201 320.661 54.9663C320.996 54.8124 321.372 54.7354 321.787 54.7354C322.357 54.7354 322.864 54.8693 323.311 55.1371C323.757 55.4048 324.109 55.7726 324.368 56.2404C324.626 56.7051 324.754 57.2406 324.751 57.8469C324.754 58.484 324.606 59.0503 324.308 59.5458C324.012 60.0382 323.598 60.426 323.066 60.7092C322.537 60.9892 321.921 61.1293 321.219 61.1293ZM335.483 51.5455V53.1935H331.208V61H329.209V51.5455H335.483ZM336.763 61V51.5455H340.493C341.21 51.5455 341.821 51.6824 342.326 51.9563C342.831 52.2272 343.215 52.6042 343.48 53.0874C343.748 53.5675 343.882 54.1214 343.882 54.7493C343.882 55.3771 343.746 55.9311 343.475 56.4112C343.205 56.8913 342.812 57.2653 342.298 57.533C341.787 57.8008 341.169 57.9347 340.442 57.9347H338.065V56.3327H340.119C340.504 56.3327 340.821 56.2666 341.07 56.1342C341.323 55.9988 341.51 55.8126 341.634 55.5756C341.76 55.3356 341.823 55.0601 341.823 54.7493C341.823 54.4354 341.76 54.1615 341.634 53.9276C341.51 53.6906 341.323 53.5075 341.07 53.3782C340.818 53.2459 340.498 53.1797 340.11 53.1797H338.762V61H336.763ZM345.18 61V51.5455H347.179V55.4464H351.237V51.5455H353.231V61H351.237V57.0945H347.179V61H345.18Z" fill="white" fill-opacity="0.16"/>
</g>
</svg>
